<?xml version="1.0" encoding="UTF-8"?>
<svg xmlns="http://www.w3.org/2000/svg" xmlns:xlink="http://www.w3.org/1999/xlink" width="200" height="200" viewBox="0 0 200 200">
<rect x="-20" y="-20" width="240" height="240" fill="rgb(100%, 100%, 100%)" fill-opacity="1"/>
<path fill="none" stroke-width="0.3" stroke-linecap="butt" stroke-linejoin="miter" stroke="rgb(0%, 0%, 0%)" stroke-opacity="1" stroke-miterlimit="4" d="M 11.463281 5.7 L 12.615 5.7 C 12.877031 5.85375 13.139062 6.007969 13.401094 6.161719 L 13.806563 6.88875 C 15.036562 6.95625 18.753281 6.867656 18.75 8.865469 L 19.528594 9.054844 C 20.177344 9.491719 20.690156 10.206094 20.897344 10.960312 L 20.647969 13.817812 C 20.408437 14.42625 19.972031 14.984531 19.438594 15.36375 L 16.247812 16.457812 C 14.799844 17.464688 13.954219 18.113437 12.2175 18.3 L 11.782031 18.3 C 10.043437 18.112969 9.197812 17.46375 7.748906 16.454531 L 4.512656 15.195937 C 4.1325 14.693906 3.752812 14.191406 3.373125 13.688906 L 3.114844 10.98 C 3.324375 10.213594 3.852187 9.4875 4.516406 9.052031 L 5.25 8.888906 C 5.245312 6.85875 9.016406 6.956719 10.272187 6.88875 L 10.677187 6.161719 C 10.939219 6.007969 11.20125 5.85375 11.463281 5.7 " transform="matrix(8.333333, 0, 0, 8.333333, 0, 0)"/>
<path fill="none" stroke-width="0.3" stroke-linecap="butt" stroke-linejoin="miter" stroke="rgb(0%, 0%, 0%)" stroke-opacity="1" stroke-miterlimit="4" d="M 11.461406 6.604687 L 12.619687 6.604687 C 13.501875 8.214375 14.347031 7.701562 16.037813 7.984219 C 16.684219 8.0925 17.818125 8.101406 17.845312 8.75625 C 17.918906 10.531875 17.542969 12.645937 16.738125 14.268281 C 15.94125 15.874688 14.511094 16.939219 12.960469 17.263594 C 11.409375 17.588437 9.738281 17.173594 8.458125 15.822188 C 7.593281 14.909062 7.0125 13.751719 6.660469 12.517969 C 6.308438 11.284219 6.185156 9.974063 6.235781 8.75625 C 6.2625 8.101406 7.396875 8.0925 8.043281 7.984219 C 9.734063 7.701562 10.579219 8.214375 11.461406 6.604687 " transform="matrix(8.333333, 0, 0, 8.333333, 0, 0)"/>
<path fill="none" stroke-width="0.3" stroke-linecap="butt" stroke-linejoin="miter" stroke="rgb(0%, 0%, 0%)" stroke-opacity="1" stroke-miterlimit="4" d="M 12 9.510937 L 14.809219 10.213594 C 14.963437 10.470469 14.848125 10.932187 14.590781 11.086406 L 12 10.439063 L 9.409219 11.086406 C 9.151875 10.932187 9.036563 10.470469 9.190781 10.213594 L 12 9.510937 " transform="matrix(8.333333, 0, 0, 8.333333, 0, 0)"/>
<path fill="none" stroke-width="0.3" stroke-linecap="butt" stroke-linejoin="miter" stroke="rgb(0%, 0%, 0%)" stroke-opacity="1" stroke-miterlimit="4" d="M 18.724687 9.785625 L 19.31625 9.929062 C 19.544531 10.246875 19.772813 10.564687 20.000625 10.882031 L 19.751719 13.739531 C 19.550156 13.997344 19.348594 14.254687 19.147031 14.5125 L 17.267812 15.156562 C 18.160312 13.329375 18.48 11.812969 18.724687 9.785625 " transform="matrix(8.333333, 0, 0, 8.333333, 0, 0)"/>
<path fill="none" stroke-width="0.3" stroke-linecap="butt" stroke-linejoin="miter" stroke="rgb(0%, 0%, 0%)" stroke-opacity="1" stroke-miterlimit="4" d="M 5.275781 9.805312 C 5.513906 11.783437 5.828437 13.282031 6.682031 15.074063 L 4.838906 14.357344 C 4.648594 14.106094 4.45875 13.854844 4.268906 13.603594 L 4.011094 10.894687 C 4.244531 10.573125 4.477969 10.252031 4.711406 9.930469 L 5.275781 9.805312 " transform="matrix(8.333333, 0, 0, 8.333333, 0, 0)"/>
</svg>
