<?xml version="1.0" encoding="UTF-8"?>
<svg xmlns="http://www.w3.org/2000/svg" xmlns:xlink="http://www.w3.org/1999/xlink" width="200" height="200" viewBox="0 0 200 200">
<rect x="-20" y="-20" width="240" height="240" fill="rgb(100%, 100%, 100%)" fill-opacity="1"/>
<path fill="none" stroke-width="0.3" stroke-linecap="butt" stroke-linejoin="miter" stroke="rgb(0%, 0%, 0%)" stroke-opacity="1" stroke-miterlimit="4" d="M 12 1.585781 C 12.196875 1.750312 12.39375 1.915312 12.590625 2.079844 L 15.302812 7.564219 L 21.353437 8.444062 C 21.687656 8.657813 21.863437 9.209531 21.715312 9.577031 L 17.339531 13.844062 L 18.376406 19.870781 C 18.285937 20.645156 18.171563 20.797969 17.412187 20.570156 L 12 17.725312 L 6.587813 20.570156 C 5.828437 20.797969 5.714062 20.645156 5.623594 19.870781 L 6.660469 13.844062 L 2.272969 9.577031 C 2.129531 9.20625 2.311406 8.658281 2.646562 8.444062 L 8.697188 7.564219 L 11.409375 2.079844 C 11.60625 1.915312 11.803125 1.750312 12 1.585781 " transform="matrix(8.333333, 0, 0, 8.333333, 0, 0)"/>
<path fill="none" stroke-width="0.3" stroke-linecap="butt" stroke-linejoin="miter" stroke="rgb(0%, 0%, 0%)" stroke-opacity="1" stroke-miterlimit="4" d="M 12 4.370156 L 14.278125 8.974687 L 19.364531 9.721875 L 16.267031 12.735469 L 15.820781 14.097187 L 16.544062 18.376406 L 12 15.977812 L 12 4.370156 " transform="matrix(8.333333, 0, 0, 8.333333, 0, 0)"/>
</svg>
