<?xml version="1.0" encoding="UTF-8"?>
<svg xmlns="http://www.w3.org/2000/svg" xmlns:xlink="http://www.w3.org/1999/xlink" width="200" height="200" viewBox="0 0 200 200">
<rect x="-20" y="-20" width="240" height="240" fill="rgb(100%, 100%, 100%)" fill-opacity="1"/>
<path fill="none" stroke-width="0.3" stroke-linecap="butt" stroke-linejoin="miter" stroke="rgb(0%, 0%, 0%)" stroke-opacity="1" stroke-miterlimit="4" d="M 6.099844 7.100156 C 8.7 7.5 10.100156 8.799844 12 10.700156 C 13.599844 9.099844 15.500156 6.999844 17.900156 7.100156 C 19.700156 7.100156 21.099844 8.000156 21.999844 9.3 C 22.8 10.599844 23.1 12.3 22.400156 13.899844 C 22.2 14.499844 21.800156 15 21.399844 15.500156 C 19.8 17.1 18.200156 17.300156 16.700156 16.8 C 15.200156 16.299844 13.700156 15 12.399844 13.599844 C 11.000156 12.3 9.800156 10.8 8.7 9.999844 C 8.000156 9.500156 6.999844 8.799844 6.099844 8.900156 C 4.5 8.900156 3.500156 9.999844 3.099844 11.199844 C 2.799844 12.500156 3.200156 13.899844 4.5 14.7 C 5.799844 15.500156 7.2 15.099844 8.300156 14.300156 C 8.600156 14.1 9.999844 12.3 10.899844 13.2 C 11.199844 13.5 11.1 14.1 10.899844 14.499844 C 10.100156 15.800156 7.5 16.899844 6.099844 16.899844 C 4.299844 16.899844 2.900156 15.999844 2.000156 14.7 C 1.2 13.400156 0.9 11.7 1.599844 10.100156 C 2.4 8.000156 4.100156 7.5 6.099844 7.100156 " transform="matrix(8.333333, 0, 0, 8.333333, 0, 0)"/>
<path fill="none" stroke-width="0.3" stroke-linecap="butt" stroke-linejoin="miter" stroke="rgb(0%, 0%, 0%)" stroke-opacity="1" stroke-miterlimit="4" d="M 17.900156 8.900156 C 19.2 9.200156 19.899844 9.099844 20.600156 10.400156 C 21.699844 12.399844 20.300156 15.099844 17.900156 15.099844 C 15.999844 15.099844 14.499844 13.2 13.2 12 C 14.799844 10.400156 15.800156 9.500156 17.900156 8.900156 " transform="matrix(8.333333, 0, 0, 8.333333, 0, 0)"/>
</svg>
