<?xml version="1.0" encoding="UTF-8"?>
<svg xmlns="http://www.w3.org/2000/svg" xmlns:xlink="http://www.w3.org/1999/xlink" width="200" height="200" viewBox="0 0 200 200">
<rect x="-20" y="-20" width="240" height="240" fill="rgb(100%, 100%, 100%)" fill-opacity="1"/>
<path fill="none" stroke-width="0.3" stroke-linecap="butt" stroke-linejoin="miter" stroke="rgb(0%, 0%, 0%)" stroke-opacity="1" stroke-miterlimit="4" d="M 17.605313 3.3375 C 18.001406 3.361875 18.397031 3.386719 18.793125 3.411094 L 21.488906 6.105937 C 21.513281 6.502031 21.538125 6.898594 21.5625 7.294687 L 18.106406 11.738906 C 18.276563 13.075781 18.437344 13.430625 18.149062 14.769844 C 17.587031 17.378438 16.160625 18.822187 14.327813 19.493906 C 12.494531 20.165625 10.254844 20.064844 8.064375 19.584844 C 5.873906 19.104844 3.733594 18.245625 2.1 17.4 C 3.760312 15.850312 4.629844 15.105 5.072812 12.917813 L 5.091563 12.698437 C 5.392969 10.513594 6.363281 8.918906 7.781719 7.929844 C 9.199687 6.940781 11.06625 6.557344 13.160156 6.794531 L 17.605313 3.3375 " transform="matrix(8.333333, 0, 0, 8.333333, 0, 0)"/>
<path fill="none" stroke-width="0.3" stroke-linecap="butt" stroke-linejoin="miter" stroke="rgb(0%, 0%, 0%)" stroke-opacity="1" stroke-miterlimit="4" d="M 18.082969 5.245312 L 19.654687 6.817031 L 17.427187 9.680625 L 16.405313 8.660156 C 16.347656 8.602031 16.289531 8.543906 16.231875 8.485312 L 15.219375 7.472812 L 18.082969 5.245312 " transform="matrix(8.333333, 0, 0, 8.333333, 0, 0)"/>
</svg>
