<?xml version="1.0" encoding="UTF-8"?>
<svg xmlns="http://www.w3.org/2000/svg" xmlns:xlink="http://www.w3.org/1999/xlink" width="200" height="200" viewBox="0 0 200 200">
<rect x="-20" y="-20" width="240" height="240" fill="rgb(100%, 100%, 100%)" fill-opacity="1"/>
<path fill="none" stroke-width="0.3" stroke-linecap="butt" stroke-linejoin="miter" stroke="rgb(0%, 0%, 0%)" stroke-opacity="1" stroke-miterlimit="4" d="M 12 2.600156 C 13.599844 2.7 15.099844 3.099844 16.400156 3.699844 C 17.799844 4.400156 18.9 5.4 19.899844 6.800156 C 21.200156 8.7 21.6 11.000156 21.3 13.100156 C 21 15.200156 20.000156 17.199844 18.500156 18.699844 C 17.000156 20.300156 15 21.3 12.6 21.399844 C 9.999844 21.6 7.700156 20.7 6 19.2 C 4.2 17.7 3.099844 15.500156 2.7 13.299844 C 2.4 11.000156 2.799844 8.600156 4.400156 6.399844 C 5.300156 5.1 6.399844 4.2 7.700156 3.6 C 9 3 10.5 2.7 12 2.600156 " transform="matrix(8.333333, 0, 0, 8.333333, 0, 0)"/>
<path fill="none" stroke-width="0.3" stroke-linecap="butt" stroke-linejoin="miter" stroke="rgb(0%, 0%, 0%)" stroke-opacity="1" stroke-miterlimit="4" d="M 8.900156 7.299844 L 12.999844 9.399844 L 17.000156 11.4 C 17.199844 11.7 17.199844 12.3 17.000156 12.6 L 12.999844 14.600156 L 8.900156 16.700156 C 8.300156 16.8 8.199844 16.599844 7.899844 15.999844 L 7.899844 12 L 8.000156 8.000156 C 8.1 7.599844 8.499844 7.400156 8.900156 7.299844 " transform="matrix(8.333333, 0, 0, 8.333333, 0, 0)"/>
<path fill="none" stroke-width="0.3" stroke-linecap="butt" stroke-linejoin="miter" stroke="rgb(0%, 0%, 0%)" stroke-opacity="1" stroke-miterlimit="4" d="M 8.900156 7.299844 L 12.999844 9.399844 L 17.000156 11.4 C 17.199844 11.7 17.199844 12.3 17.000156 12.6 L 12.999844 14.600156 L 8.900156 16.700156 C 8.499844 16.599844 8.1 16.400156 7.899844 16.100156 L 7.899844 12 L 8.000156 8.000156 C 8.1 7.599844 8.499844 7.400156 8.900156 7.299844 " transform="matrix(8.333333, 0, 0, 8.333333, 0, 0)"/>
<path fill="none" stroke-width="0.3" stroke-linecap="butt" stroke-linejoin="miter" stroke="rgb(0%, 0%, 0%)" stroke-opacity="1" stroke-miterlimit="4" d="M 15.200156 12 L 9.3 15 L 9.3 9 " transform="matrix(8.333333, 0, 0, 8.333333, 0, 0)"/>
<path fill="none" stroke-width="0.3" stroke-linecap="butt" stroke-linejoin="miter" stroke="rgb(0%, 0%, 0%)" stroke-opacity="1" stroke-miterlimit="4" d="M 9.3 9 L 15.200156 12 L 9.3 15 L 9.3 9 " transform="matrix(8.333333, 0, 0, 8.333333, 0, 0)"/>
</svg>
