<?xml version="1.0" encoding="UTF-8"?>
<svg xmlns="http://www.w3.org/2000/svg" xmlns:xlink="http://www.w3.org/1999/xlink" width="200" height="200" viewBox="0 0 200 200">
<rect x="-20" y="-20" width="240" height="240" fill="rgb(100%, 100%, 100%)" fill-opacity="1"/>
<path fill="none" stroke-width="0.3" stroke-linecap="butt" stroke-linejoin="miter" stroke="rgb(0%, 0%, 0%)" stroke-opacity="1" stroke-miterlimit="4" d="M 7.182187 3.9 L 11.10375 3.9 L 11.10375 9.010312 C 11.221875 9.513281 11.119219 10.130156 11.459062 10.520156 C 11.810625 10.92375 12.450938 10.923281 12.946875 11.125312 L 18.3 11.125312 L 18.3 17.863594 C 18.025312 18.469219 17.443125 18.973594 16.817812 19.2 L 7.182187 19.2 C 6.556875 18.973125 5.974687 18.469219 5.7 17.863594 L 5.7 5.290312 C 5.97375 4.670625 6.550781 4.145156 7.182187 3.9 " transform="matrix(8.333333, 0, 0, 8.333333, 0, 0)"/>
<path fill="none" stroke-width="0.3" stroke-linecap="butt" stroke-linejoin="miter" stroke="rgb(0%, 0%, 0%)" stroke-opacity="1" stroke-miterlimit="4" d="M 12.998906 5.798906 C 13.159687 5.798906 13.32 5.798906 13.480313 5.798906 L 16.400156 8.699531 C 16.483125 8.89875 16.307813 9.142969 16.159688 9.3 L 13.580625 9.3 C 13.35375 9.067031 13.126875 8.833594 12.9 8.600625 L 12.9 6.038437 C 12.932812 5.95875 12.966094 5.878594 12.998906 5.798906 " transform="matrix(8.333333, 0, 0, 8.333333, 0, 0)"/>
</svg>
