<?xml version="1.0" encoding="UTF-8"?>
<svg xmlns="http://www.w3.org/2000/svg" xmlns:xlink="http://www.w3.org/1999/xlink" width="200" height="200" viewBox="0 0 200 200">
<rect x="-20" y="-20" width="240" height="240" fill="rgb(100%, 100%, 100%)" fill-opacity="1"/>
<path fill="none" stroke-width="0.3" stroke-linecap="butt" stroke-linejoin="miter" stroke="rgb(0%, 0%, 0%)" stroke-opacity="1" stroke-miterlimit="4" d="M 6.06 7.066875 C 8.704219 7.543594 10.145625 8.798906 12.007031 10.677656 C 13.592344 9.076406 15.450938 7.005 17.94 7.066875 C 19.670625 7.109531 21.119531 8.017031 21.970781 9.315938 C 22.822031 10.615312 23.076094 12.307031 22.4175 13.918125 C 22.179844 14.499375 21.815156 15.039375 21.374531 15.486562 C 19.77375 17.11125 18.193594 17.323594 16.678594 16.791562 C 15.163594 16.259531 13.71375 14.982656 12.373594 13.630312 C 11.033437 12.277969 9.802969 10.849219 8.726719 10.013438 C 8.012344 9.457969 7.035469 8.821875 6.06 8.860781 C 4.546406 8.920312 3.487031 9.98625 3.142969 11.235469 C 2.798906 12.484687 3.170156 13.917187 4.516875 14.710312 C 5.832656 15.485625 7.171875 15.096562 8.318437 14.288906 C 8.629687 14.069531 10.045312 12.306094 10.910156 13.199063 C 11.204062 13.502812 11.094844 14.099062 10.887656 14.4675 C 10.1175 15.837656 7.540781 16.935 6.06 16.933125 C 4.319063 16.93125 2.876719 16.009219 2.031094 14.692031 C 1.185 13.374844 0.936094 11.662969 1.5825 10.081406 C 2.437969 7.9875 4.057031 7.477969 6.06 7.066875 " transform="matrix(8.333333, 0, 0, 8.333333, 0, 0)"/>
<path fill="none" stroke-width="0.3" stroke-linecap="butt" stroke-linejoin="miter" stroke="rgb(0%, 0%, 0%)" stroke-opacity="1" stroke-miterlimit="4" d="M 17.94 8.860781 C 19.233281 9.220313 19.852031 9.113906 20.580938 10.416562 C 21.705 12.426562 20.334375 15.147187 17.939062 15.139219 C 15.956719 15.132656 14.470781 13.245 13.231406 12 C 14.796094 10.429219 15.798281 9.450938 17.94 8.860781 " transform="matrix(8.333333, 0, 0, 8.333333, 0, 0)"/>
</svg>
