<?xml version="1.0" encoding="UTF-8"?>
<svg xmlns="http://www.w3.org/2000/svg" xmlns:xlink="http://www.w3.org/1999/xlink" width="200" height="200" viewBox="0 0 200 200">
<rect x="-20" y="-20" width="240" height="240" fill="rgb(100%, 100%, 100%)" fill-opacity="1"/>
<path fill="none" stroke-width="0.3" stroke-linecap="butt" stroke-linejoin="miter" stroke="rgb(0%, 0%, 0%)" stroke-opacity="1" stroke-miterlimit="4" d="M 12 2.55 C 13.606406 2.708906 15.104531 3.060938 16.434844 3.722812 C 17.764688 4.385156 18.926719 5.357344 19.861875 6.757031 C 21.186094 8.738906 21.612187 10.98 21.328125 13.103438 C 21.044062 15.226875 20.049844 17.233125 18.5325 18.74625 C 17.015156 20.259375 14.975625 21.279375 12.600469 21.430312 C 9.992812 21.595781 7.695 20.690625 5.961562 19.175625 C 4.227656 17.660156 3.058125 15.534844 2.705625 13.26 C 2.353594 10.984687 2.818594 8.559844 4.354687 6.445312 C 5.299219 5.145469 6.441094 4.245 7.731562 3.632812 C 9.022031 3.020625 10.461094 2.696719 12 2.55 " transform="matrix(8.333333, 0, 0, 8.333333, 0, 0)"/>
<path fill="none" stroke-width="0.3" stroke-linecap="butt" stroke-linejoin="miter" stroke="rgb(0%, 0%, 0%)" stroke-opacity="1" stroke-miterlimit="4" d="M 8.926875 7.34625 L 17.026875 11.39625 C 17.23875 11.738437 17.23875 12.261563 17.026875 12.60375 L 8.926875 16.65375 C 8.3325 16.793906 8.167969 16.576406 7.95 16.05 L 7.95 7.95 C 8.136563 7.615781 8.544375 7.363594 8.926875 7.34625 " transform="matrix(8.333333, 0, 0, 8.333333, 0, 0)"/>
<path fill="none" stroke-width="0.3" stroke-linecap="butt" stroke-linejoin="miter" stroke="rgb(0%, 0%, 0%)" stroke-opacity="1" stroke-miterlimit="4" d="M 8.926875 7.34625 L 17.026875 11.39625 C 17.23875 11.738437 17.23875 12.261563 17.026875 12.60375 L 8.926875 16.65375 C 8.544375 16.636406 8.136563 16.384219 7.95 16.05 L 7.95 7.95 C 8.136563 7.615781 8.544375 7.363594 8.926875 7.34625 " transform="matrix(8.333333, 0, 0, 8.333333, 0, 0)"/>
<path fill="none" stroke-width="0.3" stroke-linecap="butt" stroke-linejoin="miter" stroke="rgb(0%, 0%, 0%)" stroke-opacity="1" stroke-miterlimit="4" d="M 15.215625 12 L 9.3 14.957812 L 9.3 9.042187 " transform="matrix(8.333333, 0, 0, 8.333333, 0, 0)"/>
<path fill="none" stroke-width="0.3" stroke-linecap="butt" stroke-linejoin="miter" stroke="rgb(0%, 0%, 0%)" stroke-opacity="1" stroke-miterlimit="4" d="M 9.3 9.042187 L 15.215625 12 L 9.3 14.957812 L 9.3 9.042187 " transform="matrix(8.333333, 0, 0, 8.333333, 0, 0)"/>
</svg>
