<?xml version="1.0" encoding="UTF-8"?>
<svg xmlns="http://www.w3.org/2000/svg" xmlns:xlink="http://www.w3.org/1999/xlink" width="200" height="200" viewBox="0 0 200 200">
<rect x="-20" y="-20" width="240" height="240" fill="rgb(100%, 100%, 100%)" fill-opacity="1"/>
<path fill="none" stroke-width="0.3" stroke-linecap="butt" stroke-linejoin="miter" stroke="rgb(0%, 0%, 0%)" stroke-opacity="1" stroke-miterlimit="4" d="M 17.600156 3.3 C 18 3.399844 18.399844 3.399844 18.800156 3.399844 L 21.500156 6.099844 C 21.500156 6.500156 21.500156 6.9 21.6 7.299844 L 18.099844 11.7 C 18.3 13.100156 18.399844 13.400156 18.099844 14.799844 C 17.600156 17.4 16.2 18.800156 14.300156 19.5 C 12.500156 20.199844 10.299844 20.1 8.1 19.599844 C 5.900156 19.100156 3.699844 18.200156 2.1 17.4 C 3.800156 15.9 4.599844 15.099844 5.1 12.9 L 5.1 12.699844 C 5.4 10.5 6.399844 8.900156 7.8 7.899844 C 9.200156 6.9 11.1 6.6 13.2 6.800156 L 17.600156 3.3 " transform="matrix(8.333333, 0, 0, 8.333333, 0, 0)"/>
<path fill="none" stroke-width="0.3" stroke-linecap="butt" stroke-linejoin="miter" stroke="rgb(0%, 0%, 0%)" stroke-opacity="1" stroke-miterlimit="4" d="M 18.099844 5.199844 L 19.700156 6.800156 L 17.4 9.699844 L 16.400156 8.7 C 16.299844 8.600156 16.299844 8.499844 16.2 8.499844 L 15.200156 7.5 L 18.099844 5.199844 " transform="matrix(8.333333, 0, 0, 8.333333, 0, 0)"/>
</svg>
