<?xml version="1.0" encoding="UTF-8"?>
<svg xmlns="http://www.w3.org/2000/svg" xmlns:xlink="http://www.w3.org/1999/xlink" width="200" height="200" viewBox="0 0 200 200">
<rect x="-20" y="-20" width="240" height="240" fill="rgb(100%, 100%, 100%)" fill-opacity="1"/>
<path fill="none" stroke-width="0.3" stroke-linecap="butt" stroke-linejoin="miter" stroke="rgb(0%, 0%, 0%)" stroke-opacity="1" stroke-miterlimit="4" d="M 12 1.599844 C 12.200156 1.8 12.399844 1.899844 12.6 2.1 L 15.3 7.599844 L 21.399844 8.4 C 21.699844 8.7 21.9 9.200156 21.699844 9.6 L 17.300156 13.8 L 18.399844 19.899844 C 18.3 20.600156 18.200156 20.799844 17.4 20.600156 L 12 17.7 L 6.6 20.600156 C 5.799844 20.799844 5.7 20.600156 5.600156 19.899844 L 6.699844 13.8 L 2.300156 9.6 C 2.1 9.200156 2.300156 8.7 2.600156 8.4 L 8.7 7.599844 L 11.4 2.1 C 11.600156 1.899844 11.799844 1.8 12 1.599844 " transform="matrix(8.333333, 0, 0, 8.333333, 0, 0)"/>
<path fill="none" stroke-width="0.3" stroke-linecap="butt" stroke-linejoin="miter" stroke="rgb(0%, 0%, 0%)" stroke-opacity="1" stroke-miterlimit="4" d="M 12 4.400156 L 14.300156 9 L 19.400156 9.699844 L 16.299844 12.699844 L 15.800156 14.1 L 16.5 18.399844 L 12 15.999844 L 12 4.400156 " transform="matrix(8.333333, 0, 0, 8.333333, 0, 0)"/>
</svg>
