<?xml version="1.0" encoding="UTF-8"?>
<svg xmlns="http://www.w3.org/2000/svg" xmlns:xlink="http://www.w3.org/1999/xlink" width="200" height="200" viewBox="0 0 200 200">
<rect x="-20" y="-20" width="240" height="240" fill="rgb(100%, 100%, 100%)" fill-opacity="1"/>
<path fill="none" stroke-width="0.3" stroke-linecap="butt" stroke-linejoin="miter" stroke="rgb(0%, 0%, 0%)" stroke-opacity="1" stroke-miterlimit="4" d="M 7.2 3.9 L 11.1 3.9 L 11.1 9 C 11.199844 9.500156 11.1 10.100156 11.499844 10.5 C 11.799844 10.899844 12.500156 10.899844 12.9 11.1 L 18.3 11.1 L 18.3 17.900156 C 18 18.500156 17.4 18.999844 16.8 19.2 L 7.2 19.2 C 6.6 18.999844 6 18.500156 5.7 17.900156 L 5.7 5.300156 C 6 4.700156 6.6 4.100156 7.2 3.9 " transform="matrix(8.333333, 0, 0, 8.333333, 0, 0)"/>
<path fill="none" stroke-width="0.3" stroke-linecap="butt" stroke-linejoin="miter" stroke="rgb(0%, 0%, 0%)" stroke-opacity="1" stroke-miterlimit="4" d="M 12.999844 5.799844 C 13.2 5.799844 13.299844 5.799844 13.5 5.799844 L 16.400156 8.7 C 16.5 8.900156 16.299844 9.099844 16.2 9.3 L 13.599844 9.3 C 13.400156 9.099844 13.100156 8.799844 12.9 8.600156 L 12.9 6 C 12.9 6 12.999844 5.900156 12.999844 5.799844 " transform="matrix(8.333333, 0, 0, 8.333333, 0, 0)"/>
</svg>
