<?xml version="1.0" encoding="UTF-8"?>
<svg xmlns="http://www.w3.org/2000/svg" xmlns:xlink="http://www.w3.org/1999/xlink" width="200" height="200" viewBox="0 0 200 200">
<rect x="-20" y="-20" width="240" height="240" fill="rgb(100%, 100%, 100%)" fill-opacity="1"/>
<path fill="none" stroke-width="0.3" stroke-linecap="butt" stroke-linejoin="miter" stroke="rgb(0%, 0%, 0%)" stroke-opacity="1" stroke-miterlimit="4" d="M 14.7 3.9 L 18.3 3.9 C 19.083281 4.225781 19.774219 4.916719 20.1 5.7 L 20.1 9.3 L 18.3 9.3 L 18.3 5.7 L 14.7 5.7 L 14.7 3.9 " transform="matrix(8.333333, 0, 0, 8.333333, 0, 0)"/>
<path fill="none" stroke-width="0.3" stroke-linecap="butt" stroke-linejoin="miter" stroke="rgb(0%, 0%, 0%)" stroke-opacity="1" stroke-miterlimit="4" d="M 5.7 9.3 L 3.9 9.3 L 3.9 5.7 C 4.225781 4.916719 4.916719 4.225781 5.7 3.9 L 9.3 3.9 L 9.3 5.7 L 5.7 5.7 " transform="matrix(8.333333, 0, 0, 8.333333, 0, 0)"/>
<path fill="none" stroke-width="0.3" stroke-linecap="butt" stroke-linejoin="miter" stroke="rgb(0%, 0%, 0%)" stroke-opacity="1" stroke-miterlimit="4" d="M 9.3 12 C 9.60375 10.873594 9.512344 10.311562 10.635937 9.667969 C 12.4125 8.650313 14.7 9.936562 14.7 12 C 14.7 14.063437 12.4125 15.349687 10.635937 14.332031 C 9.512344 13.688437 9.60375 13.126406 9.3 12 " transform="matrix(8.333333, 0, 0, 8.333333, 0, 0)"/>
<path fill="none" stroke-width="0.3" stroke-linecap="butt" stroke-linejoin="miter" stroke="rgb(0%, 0%, 0%)" stroke-opacity="1" stroke-miterlimit="4" d="M 3.9 14.7 L 5.7 14.7 L 5.7 18.3 L 9.3 18.3 L 9.3 20.1 L 5.7 20.1 C 4.916719 19.774219 4.225781 19.083281 3.9 18.3 L 3.9 14.7 " transform="matrix(8.333333, 0, 0, 8.333333, 0, 0)"/>
<path fill="none" stroke-width="0.3" stroke-linecap="butt" stroke-linejoin="miter" stroke="rgb(0%, 0%, 0%)" stroke-opacity="1" stroke-miterlimit="4" d="M 18.3 14.7 L 20.1 14.7 L 20.1 18.3 C 19.774219 19.083281 19.083281 19.774219 18.3 20.1 L 14.7 20.1 L 14.7 18.3 L 18.3 18.3 " transform="matrix(8.333333, 0, 0, 8.333333, 0, 0)"/>
</svg>
