<?xml version="1.0" encoding="UTF-8"?>
<svg xmlns="http://www.w3.org/2000/svg" xmlns:xlink="http://www.w3.org/1999/xlink" width="200" height="200" viewBox="0 0 200 200">
<rect x="-20" y="-20" width="240" height="240" fill="rgb(100%, 100%, 100%)" fill-opacity="1"/>
<path fill="none" stroke-width="0.3" stroke-linecap="butt" stroke-linejoin="miter" stroke="rgb(0%, 0%, 0%)" stroke-opacity="1" stroke-miterlimit="4" d="M 5.25 1.2 L 18.75 1.2 C 21.301406 1.715156 22.284844 2.698594 22.8 5.25 L 22.8 18.75 C 22.284844 21.301406 21.301406 22.284844 18.75 22.8 L 5.25 22.8 C 2.698594 22.284844 1.715156 21.301406 1.2 18.75 L 1.2 5.25 C 1.715156 2.698594 2.698594 1.715156 5.25 1.2 " transform="matrix(8.333333, 0, 0, 8.333333, 0, 0)"/>
<path fill="none" stroke-width="0.3" stroke-linecap="butt" stroke-linejoin="miter" stroke="rgb(0%, 0%, 0%)" stroke-opacity="1" stroke-miterlimit="4" d="M 12.22875 6.69 L 13.8 8.138438 L 13.8 7.3875 C 13.9125 7.275 14.025 7.1625 14.1375 7.05 L 15.7125 7.05 C 15.825 7.1625 15.9375 7.275 16.05 7.3875 L 16.05 10.324219 L 17.23125 11.484844 C 17.365312 11.805469 17.083594 12.204375 16.8375 12.45 L 16.05 12.45 L 16.05 16.5 C 15.75 16.8 15.449531 17.1 15.149531 17.4 L 8.85 17.4 C 8.55 17.1 8.25 16.799531 7.95 16.499531 L 7.95 12.449531 L 7.1625 12.449531 C 6.916875 12.204375 6.633281 11.807344 6.765937 11.487187 L 11.766562 6.694219 C 11.920781 6.692812 12.074531 6.691406 12.22875 6.69 " transform="matrix(8.333333, 0, 0, 8.333333, 0, 0)"/>
</svg>
