<?xml version="1.0" encoding="UTF-8"?>
<svg xmlns="http://www.w3.org/2000/svg" xmlns:xlink="http://www.w3.org/1999/xlink" width="200" height="200" viewBox="0 0 200 200">
<rect x="-20" y="-20" width="240" height="240" fill="rgb(100%, 100%, 100%)" fill-opacity="1"/>
<path fill="none" stroke-width="0.3" stroke-linecap="butt" stroke-linejoin="miter" stroke="rgb(0%, 0%, 0%)" stroke-opacity="1" stroke-miterlimit="4" d="M 10.100156 5.300156 C 12.399844 5.600156 13.5 6.200156 15.3 7.8 L 14.900156 8.199844 C 13.5 6.9 12.200156 5.799844 10.100156 5.900156 C 8.000156 5.900156 6.200156 6.9 5.1 8.4 C 3.999844 9.999844 3.6 12 4.299844 13.899844 C 4.899844 15.800156 6.399844 17.199844 8.1 17.799844 C 9.800156 18.399844 11.799844 18.200156 13.5 17.1 C 15.6 15.699844 16.2 13.599844 16.2 11.199844 L 11.7 15.399844 L 7.299844 10.8 L 9.3 8.799844 L 12 12.099844 L 15.200156 8.7 L 18.399844 5.300156 L 20.600156 6.9 L 16.700156 10.700156 C 16.8 12.399844 17.000156 12.9 16.299844 14.499844 C 15.800156 15.699844 15 16.8 13.899844 17.499844 C 11.4 19.2 9 19.100156 6.999844 17.900156 C 5.1 16.700156 3.699844 14.499844 3.500156 12.3 C 3.200156 9.999844 4.100156 7.700156 6.699844 6.200156 C 8.1 5.4 8.499844 5.499844 10.100156 5.300156 " transform="matrix(8.333333, 0, 0, 8.333333, 0, 0)"/>
</svg>
