<?xml version="1.0" encoding="UTF-8"?>
<svg xmlns="http://www.w3.org/2000/svg" xmlns:xlink="http://www.w3.org/1999/xlink" width="200" height="200" viewBox="0 0 200 200">
<rect x="-20" y="-20" width="240" height="240" fill="rgb(100%, 100%, 100%)" fill-opacity="1"/>
<path fill="none" stroke-width="0.3" stroke-linecap="butt" stroke-linejoin="miter" stroke="rgb(0%, 0%, 0%)" stroke-opacity="1" stroke-miterlimit="4" d="M 1.2 1.2 L 22.8 1.2 L 22.8 22.8 L 1.2 22.8 " transform="matrix(8.333333, 0, 0, 8.333333, 0, 0)"/>
<path fill="none" stroke-width="0.3" stroke-linecap="butt" stroke-linejoin="miter" stroke="rgb(0%, 0%, 0%)" stroke-opacity="1" stroke-miterlimit="4" d="M 12 3 C 13.5 3.200156 14.900156 3.500156 16.2 4.100156 C 17.499844 4.700156 18.6 5.600156 19.5 6.999844 C 20.799844 8.900156 21.200156 11.1 20.900156 13.2 C 20.499844 15.3 19.5 17.199844 18 18.699844 C 16.400156 20.1 14.4 21 12 21 C 9.6 21 7.599844 20.1 6 18.699844 C 4.5 17.199844 3.500156 15.3 3.099844 13.2 C 2.799844 11.1 3.200156 8.900156 4.5 6.999844 C 5.4 5.600156 6.500156 4.700156 7.8 4.100156 C 9.099844 3.500156 10.5 3.200156 12 3 " transform="matrix(8.333333, 0, 0, 8.333333, 0, 0)"/>
<path fill="none" stroke-width="0.3" stroke-linecap="butt" stroke-linejoin="miter" stroke="rgb(0%, 0%, 0%)" stroke-opacity="1" stroke-miterlimit="4" d="M 12 5.7 C 14.4 6.099844 16.2 8.1 14.499844 10.700156 C 14.199844 11.199844 13.5 11.4 13.100156 11.799844 L 13.100156 11.900156 C 14.799844 12.6 15.999844 13.700156 16.599844 15.099844 C 17.199844 16.5 16.899844 18.200156 15.699844 19.899844 C 13.8 20.900156 12.099844 21.399844 10.100156 20.799844 C 8.000156 20.000156 6.699844 18.3 6.399844 16.400156 C 6.200156 14.499844 6.999844 12.500156 8.900156 11.199844 C 8.600156 9.3 9.099844 7.8 10.100156 6.9 C 11.1 6 12.6 5.499844 14.4 5.4 " transform="matrix(8.333333, 0, 0, 8.333333, 0, 0)"/>
<path fill="none" stroke-width="0.3" stroke-linecap="butt" stroke-linejoin="miter" stroke="rgb(0%, 0%, 0%)" stroke-opacity="1" stroke-miterlimit="4" d="M 11.7 11.799844 L 12.3 11.799844 C 14.199844 12.200156 14.7 12.800156 15.099844 14.600156 L 15.099844 14.900156 C 14.900156 15.399844 14.900156 15.999844 14.600156 16.599844 C 13.8 18 12.6 18.200156 11.499844 17.799844 C 10.400156 17.4 9.399844 16.400156 9 15.200156 C 9.099844 14.499844 9.200156 13.899844 9.3 13.2 C 9.9 12.699844 10.5 12.200156 11.000156 11.799844 C 11.300156 11.7 11.7 11.799844 11.7 11.799844 " transform="matrix(8.333333, 0, 0, 8.333333, 0, 0)"/>
<path fill="none" stroke-width="0.3" stroke-linecap="butt" stroke-linejoin="miter" stroke="rgb(0%, 0%, 0%)" stroke-opacity="1" stroke-miterlimit="4" d="M 11.7 12.800156 L 12.3 12.800156 C 12.500156 12.999844 12.6 13.400156 12.3 13.599844 L 11.7 13.599844 C 11.4 13.400156 11.4 12.999844 11.7 12.800156 " transform="matrix(8.333333, 0, 0, 8.333333, 0, 0)"/>
</svg>
