<?xml version="1.0" encoding="UTF-8"?>
<svg xmlns="http://www.w3.org/2000/svg" xmlns:xlink="http://www.w3.org/1999/xlink" width="200" height="200" viewBox="0 0 200 200">
<rect x="-20" y="-20" width="240" height="240" fill="rgb(100%, 100%, 100%)" fill-opacity="1"/>
<path fill="none" stroke-width="0.3" stroke-linecap="butt" stroke-linejoin="miter" stroke="rgb(0%, 0%, 0%)" stroke-opacity="1" stroke-miterlimit="4" d="M 11.600156 1.400156 C 11.900156 1.400156 12.099844 1.400156 12.399844 1.400156 L 17.499844 4.599844 L 22.5 7.899844 C 22.599844 8.1 22.700156 8.4 22.700156 8.600156 L 22.700156 15.399844 C 22.700156 15.699844 22.599844 15.9 22.5 16.100156 L 17.499844 19.400156 L 12.399844 22.599844 C 12.200156 22.599844 11.900156 22.599844 11.600156 22.599844 L 6.500156 19.400156 L 1.5 16.100156 C 1.400156 15.9 1.299844 15.699844 1.299844 15.399844 L 1.299844 8.600156 C 1.299844 8.4 1.400156 8.1 1.5 7.899844 L 6.500156 4.599844 L 11.600156 1.400156 " transform="matrix(8.333333, 0, 0, 8.333333, 0, 0)"/>
<path fill="none" stroke-width="0.3" stroke-linecap="butt" stroke-linejoin="miter" stroke="rgb(0%, 0%, 0%)" stroke-opacity="1" stroke-miterlimit="4" d="M 10.899844 3.099844 L 10.899844 7.299844 L 7.2 9.6 L 3.500156 7.299844 L 7.700156 3.999844 L 10.899844 1.700156 " transform="matrix(8.333333, 0, 0, 8.333333, 0, 0)"/>
<path fill="none" stroke-width="0.3" stroke-linecap="butt" stroke-linejoin="miter" stroke="rgb(0%, 0%, 0%)" stroke-opacity="1" stroke-miterlimit="4" d="M 13.100156 7.299844 L 16.299844 9.6 L 7.700156 14.4 L 3.500156 16.700156 C 3 16.5 2.499844 16.2 1.899844 15.999844 L 1.899844 8.000156 C 2.499844 7.8 3 7.5 3.500156 7.299844 L 7.700156 9.6 L 12 12 L 16.299844 9.6 L 20.499844 7.299844 C 21 7.5 21.500156 7.8 22.100156 8.000156 L 22.100156 15.999844 C 21.500156 16.2 21 16.5 20.499844 16.700156 L 16.299844 14.4 L 13.100156 12 L 9.9 9.6 L 13.100156 7.299844 " transform="matrix(8.333333, 0, 0, 8.333333, 0, 0)"/>
<path fill="none" stroke-width="0.3" stroke-linecap="butt" stroke-linejoin="miter" stroke="rgb(0%, 0%, 0%)" stroke-opacity="1" stroke-miterlimit="4" d="M 12 8.799844 L 12 16.899844 L 6.099844 12.800156 L 12 8.799844 " transform="matrix(8.333333, 0, 0, 8.333333, 0, 0)"/>
<path fill="none" stroke-width="0.3" stroke-linecap="butt" stroke-linejoin="miter" stroke="rgb(0%, 0%, 0%)" stroke-opacity="1" stroke-miterlimit="4" d="M 20.1 13.299844 C 20.600156 13.5 21.200156 13.599844 21.500156 14.000156 C 22.8 15.200156 21.9 17.4 20.1 17.4 C 18.3 17.4 17.4 15.200156 18.699844 13.899844 C 18.999844 13.599844 19.599844 13.5 20.1 13.299844 " transform="matrix(8.333333, 0, 0, 8.333333, 0, 0)"/>
</svg>
