<?xml version="1.0" encoding="UTF-8"?>
<svg xmlns="http://www.w3.org/2000/svg" xmlns:xlink="http://www.w3.org/1999/xlink" width="200" height="200" viewBox="0 0 200 200">
<rect x="-20" y="-20" width="240" height="240" fill="rgb(100%, 100%, 100%)" fill-opacity="1"/>
<path fill="none" stroke-width="0.3" stroke-linecap="butt" stroke-linejoin="miter" stroke="rgb(0%, 0%, 0%)" stroke-opacity="1" stroke-miterlimit="4" d="M 12 1.2 C 14.300156 1.299844 16.299844 2.000156 17.900156 3.200156 C 19.5 4.400156 20.799844 6.099844 21.800156 8.199844 L 21.800156 15.800156 C 20.900156 18.699844 18.9 19.700156 16.2 17.900156 C 15 19.100156 14.000156 19.8 12.500156 20.300156 L 12 20.600156 L 11.499844 20.300156 C 9.9 19.599844 9 18.999844 7.8 17.7 C 5.1 19.700156 3.099844 18.800156 2.199844 15.800156 L 2.199844 8.199844 C 3.099844 5.300156 5.1 4.299844 7.8 6.3 C 9.200156 4.899844 10.100156 4.5 12 4.100156 " transform="matrix(8.333333, 0, 0, 8.333333, 0, 0)"/>
<path fill="none" stroke-width="0.3" stroke-linecap="butt" stroke-linejoin="miter" stroke="rgb(0%, 0%, 0%)" stroke-opacity="1" stroke-miterlimit="4" d="M 12 5.499844 C 13.599844 5.799844 14.4 6.099844 15.6 7.299844 L 15.9 7.8 L 16.599844 7.899844 C 17.199844 8.199844 17.600156 8.7 17.900156 9.3 L 17.900156 10.100156 L 6 10.100156 L 6.099844 9.3 C 6.399844 8.7 6.999844 8.199844 7.5 7.899844 L 8.1 7.8 L 8.4 7.299844 C 9.6 6.099844 10.400156 5.799844 12 5.499844 " transform="matrix(8.333333, 0, 0, 8.333333, 0, 0)"/>
<path fill="none" stroke-width="0.3" stroke-linecap="butt" stroke-linejoin="miter" stroke="rgb(0%, 0%, 0%)" stroke-opacity="1" stroke-miterlimit="4" d="M 12 6.099844 C 13.2 6.500156 14.1 8.7 12 8.7 C 9.800156 8.7 10.700156 6.500156 12 6.099844 " transform="matrix(8.333333, 0, 0, 8.333333, 0, 0)"/>
<path fill="none" stroke-width="0.3" stroke-linecap="butt" stroke-linejoin="miter" stroke="rgb(0%, 0%, 0%)" stroke-opacity="1" stroke-miterlimit="4" d="M 7.5 11.499844 C 9.399844 11.900156 9.500156 13.5 7.5 14.000156 L 7.5 11.499844 " transform="matrix(8.333333, 0, 0, 8.333333, 0, 0)"/>
<path fill="none" stroke-width="0.3" stroke-linecap="butt" stroke-linejoin="miter" stroke="rgb(0%, 0%, 0%)" stroke-opacity="1" stroke-miterlimit="4" d="M 16.5 11.600156 C 15 11.7 14.199844 12 13.100156 13.100156 L 13.100156 15.200156 L 10.700156 15.200156 L 10.700156 13.100156 C 12.099844 11.7 14.300156 10.599844 16.5 11.600156 " transform="matrix(8.333333, 0, 0, 8.333333, 0, 0)"/>
<path fill="none" stroke-width="0.3" stroke-linecap="butt" stroke-linejoin="miter" stroke="rgb(0%, 0%, 0%)" stroke-opacity="1" stroke-miterlimit="4" d="M 7.5 15.699844 C 9.099844 16.5 10.299844 16.899844 12.3 16.899844 L 12.3 20.1 C 10.100156 19.8 8.300156 19.100156 6.9 17.900156 C 5.600156 16.8 4.8 15.200156 4.400156 13.100156 L 7.5 15.699844 " transform="matrix(8.333333, 0, 0, 8.333333, 0, 0)"/>
</svg>
