<?xml version="1.0" encoding="UTF-8"?>
<svg xmlns="http://www.w3.org/2000/svg" xmlns:xlink="http://www.w3.org/1999/xlink" width="200" height="200" viewBox="0 0 200 200">
<rect x="-20" y="-20" width="240" height="240" fill="rgb(100%, 100%, 100%)" fill-opacity="1"/>
<path fill="none" stroke-width="0.3" stroke-linecap="butt" stroke-linejoin="miter" stroke="rgb(0%, 0%, 0%)" stroke-opacity="1" stroke-miterlimit="4" d="M 11.1 5.7 C 11.7 5.4 12.3 5.000156 12.9 5.000156 C 14.1 5.000156 14.7 6.800156 13.8 7.5 C 12.800156 8.199844 11.4 7.5 11.199844 6.399844 C 11.1 6 11.7 5.799844 11.900156 5.7 " transform="matrix(8.333333, 0, 0, 8.333333, 0, 0)"/>
<path fill="none" stroke-width="0.3" stroke-linecap="butt" stroke-linejoin="miter" stroke="rgb(0%, 0%, 0%)" stroke-opacity="1" stroke-miterlimit="4" d="M 11.900156 8.900156 C 12.099844 9 12.200156 9 12.3 9.099844 L 12.3 13.5 L 16.100156 13.5 C 16.2 13.599844 16.2 13.899844 16.100156 14.000156 L 7.899844 14.000156 C 7.8 13.899844 7.8 13.599844 7.899844 13.5 L 11.4 13.5 L 11.4 9.099844 C 11.600156 9 11.7 8.900156 11.900156 8.900156 " transform="matrix(8.333333, 0, 0, 8.333333, 0, 0)"/>
</svg>
