<?xml version="1.0" encoding="UTF-8"?>
<svg xmlns="http://www.w3.org/2000/svg" xmlns:xlink="http://www.w3.org/1999/xlink" width="200" height="200" viewBox="0 0 200 200">
<rect x="-20" y="-20" width="240" height="240" fill="rgb(100%, 100%, 100%)" fill-opacity="1"/>
<path fill="none" stroke-width="0.3" stroke-linecap="butt" stroke-linejoin="miter" stroke="rgb(0%, 0%, 0%)" stroke-opacity="1" stroke-miterlimit="4" d="M 12.399844 4.400156 C 12.6 4.5 12.9 4.599844 13.2 4.700156 L 15.9 7.599844 L 18.6 10.400156 C 18.699844 11.000156 18.699844 11.7 18.699844 12.3 L 11.300156 20.1 C 9.399844 21.099844 8.499844 20.000156 9.200156 18.200156 L 12.3 15 L 15.500156 11.799844 L 11.900156 8.1 L 8.4 4.5 C 7.8 3.3 8.7 2.4 9.999844 3.200156 L 12.9 6.999844 L 15.800156 4.100156 C 16.2 3.999844 16.5 3.9 16.8 3.800156 " transform="matrix(8.333333, 0, 0, 8.333333, 0, 0)"/>
</svg>
