<?xml version="1.0" encoding="UTF-8"?>
<svg xmlns="http://www.w3.org/2000/svg" xmlns:xlink="http://www.w3.org/1999/xlink" width="200" height="200" viewBox="0 0 200 200">
<rect x="-20" y="-20" width="240" height="240" fill="rgb(100%, 100%, 100%)" fill-opacity="1"/>
<path fill="none" stroke-width="0.3" stroke-linecap="butt" stroke-linejoin="miter" stroke="rgb(0%, 0%, 0%)" stroke-opacity="1" stroke-miterlimit="4" d="M 12.699844 5.1 C 15.399844 5.499844 17.000156 6.9 18.399844 9.200156 L 10.400156 9.200156 L 12.699844 5.1 " transform="matrix(8.333333, 0, 0, 8.333333, 0, 0)"/>
<path fill="none" stroke-width="0.3" stroke-linecap="butt" stroke-linejoin="miter" stroke="rgb(0%, 0%, 0%)" stroke-opacity="1" stroke-miterlimit="4" d="M 12.699844 5.1 L 10.700156 8.499844 L 8.7 12 L 6.399844 7.899844 C 8.1 5.799844 9.999844 5.1 12.699844 5.1 " transform="matrix(8.333333, 0, 0, 8.333333, 0, 0)"/>
<path fill="none" stroke-width="0.3" stroke-linecap="butt" stroke-linejoin="miter" stroke="rgb(0%, 0%, 0%)" stroke-opacity="1" stroke-miterlimit="4" d="M 6.399844 7.899844 L 8.4 11.4 L 10.400156 14.799844 L 5.600156 14.799844 C 4.700156 12.3 5.1 10.2 6.399844 7.899844 " transform="matrix(8.333333, 0, 0, 8.333333, 0, 0)"/>
<path fill="none" stroke-width="0.3" stroke-linecap="butt" stroke-linejoin="miter" stroke="rgb(0%, 0%, 0%)" stroke-opacity="1" stroke-miterlimit="4" d="M 12.699844 9.9 C 14.300156 10.2 15.699844 10.8 16.299844 12.500156 C 16.8 14.000156 16.2 15.500156 15.099844 16.400156 C 14.1 17.300156 12.500156 17.7 11.1 16.8 C 10.100156 16.2 9.200156 14.900156 8.900156 13.599844 C 8.600156 12.3 8.799844 10.899844 9.9 9.999844 C 11.000156 9.200156 11.4 9.399844 12.699844 9.9 " transform="matrix(8.333333, 0, 0, 8.333333, 0, 0)"/>
<path fill="none" stroke-width="0.3" stroke-linecap="butt" stroke-linejoin="miter" stroke="rgb(0%, 0%, 0%)" stroke-opacity="1" stroke-miterlimit="4" d="M 12.699844 14.199844 C 14.1 14.799844 14.900156 14.600156 15.699844 15.999844 C 16.899844 18.399844 15.399844 21.399844 12.699844 21.399844 C 10.100156 21.399844 8.600156 18.399844 9.800156 15.999844 C 10.599844 14.600156 11.300156 14.799844 12.699844 14.199844 " transform="matrix(8.333333, 0, 0, 8.333333, 0, 0)"/>
</svg>
