<?xml version="1.0" encoding="UTF-8"?>
<svg xmlns="http://www.w3.org/2000/svg" xmlns:xlink="http://www.w3.org/1999/xlink" width="200" height="200" viewBox="0 0 200 200">
<rect x="-20" y="-20" width="240" height="240" fill="rgb(100%, 100%, 100%)" fill-opacity="1"/>
<path fill="none" stroke-width="0.3" stroke-linecap="butt" stroke-linejoin="miter" stroke="rgb(0%, 0%, 0%)" stroke-opacity="1" stroke-miterlimit="4" d="M 10.100156 5.300156 C 12.399844 5.600156 13.5 6.200156 15.3 7.8 L 14.900156 8.199844 C 13.5 6.9 12.200156 5.799844 10.100156 5.900156 C 8.000156 5.900156 6.200156 6.9 5.1 8.4 C 3.999844 9.999844 3.6 12 4.299844 13.899844 C 4.899844 15.800156 6.399844 17.199844 8.1 17.799844 C 9.800156 18.399844 11.799844 18.200156 13.5 17.1 C 15.6 15.699844 16.2 13.599844 16.2 11.199844 L 11.7 14.7 L 7.2 18.3 C 5.499844 18.999844 3.800156 18.3 2.799844 17.000156 C 1.8 15.800156 1.599844 13.899844 2.499844 12.3 C 3.200156 10.899844 4.100156 10.8 5.4 10.100156 L 5.900156 9.800156 C 6.099844 9.800156 6.3 9.9 6.3 9.999844 L 6.200156 10.299844 C 5.900156 12.699844 6.699844 14.799844 8.4 16.100156 C 9.999844 17.4 12.200156 17.900156 14.499844 16.8 C 15.6 16.299844 16.400156 15.399844 16.8 14.4 C 17.300156 13.299844 17.4 12.200156 17.300156 10.8 L 18.399844 10.400156 " transform="matrix(8.333333, 0, 0, 8.333333, 0, 0)"/>
</svg>
