<?xml version="1.0" encoding="UTF-8"?>
<svg xmlns="http://www.w3.org/2000/svg" xmlns:xlink="http://www.w3.org/1999/xlink" width="200" height="200" viewBox="0 0 200 200">
<rect x="-20" y="-20" width="240" height="240" fill="rgb(100%, 100%, 100%)" fill-opacity="1"/>
<path fill="none" stroke-width="0.3" stroke-linecap="butt" stroke-linejoin="miter" stroke="rgb(0%, 0%, 0%)" stroke-opacity="1" stroke-miterlimit="4" d="M 16.299844 5.7 C 17.499844 6 18.099844 5.900156 18.800156 7.100156 C 19.899844 9.099844 18.500156 11.600156 16.299844 11.600156 C 14.000156 11.600156 12.6 9.099844 13.700156 7.100156 C 14.4 5.900156 15.099844 6 16.299844 5.7 " transform="matrix(8.333333, 0, 0, 8.333333, 0, 0)"/>
<path fill="none" stroke-width="0.3" stroke-linecap="butt" stroke-linejoin="miter" stroke="rgb(0%, 0%, 0%)" stroke-opacity="1" stroke-miterlimit="4" d="M 16.299844 5.7 C 17.499844 6 18.099844 5.900156 18.800156 7.100156 C 19.899844 9.099844 18.500156 11.600156 16.299844 11.600156 C 14.000156 11.600156 12.6 9.099844 13.700156 7.100156 C 14.4 5.900156 15.099844 6 16.299844 5.7 " transform="matrix(8.333333, 0, 0, 8.333333, 0, 0)"/>
<path fill="none" stroke-width="0.3" stroke-linecap="butt" stroke-linejoin="miter" stroke="rgb(0%, 0%, 0%)" stroke-opacity="1" stroke-miterlimit="4" d="M 16.299844 6.6 C 16.8 6.800156 17.300156 6.800156 17.7 7.2 C 18.999844 8.4 18 10.599844 16.299844 10.599844 C 14.499844 10.599844 13.599844 8.4 14.799844 7.2 C 15.200156 6.800156 15.800156 6.800156 16.299844 6.6 " transform="matrix(8.333333, 0, 0, 8.333333, 0, 0)"/>
<path fill="none" stroke-width="0.3" stroke-linecap="butt" stroke-linejoin="miter" stroke="rgb(0%, 0%, 0%)" stroke-opacity="1" stroke-miterlimit="4" d="M 7.700156 12.399844 C 8.1 12.6 8.7 12.6 9.099844 12.9 C 10.299844 14.000156 9.500156 16.299844 7.700156 16.299844 C 5.900156 16.299844 5.1 14.000156 6.3 12.9 C 6.699844 12.6 7.2 12.6 7.700156 12.399844 " transform="matrix(8.333333, 0, 0, 8.333333, 0, 0)"/>
<path fill="none" stroke-width="0.3" stroke-linecap="butt" stroke-linejoin="miter" stroke="rgb(0%, 0%, 0%)" stroke-opacity="1" stroke-miterlimit="4" d="M 16.299844 12.399844 C 16.8 12.6 17.300156 12.6 17.7 12.9 C 18.9 14.000156 18.099844 16.299844 16.299844 16.299844 C 14.499844 16.299844 13.700156 14.000156 14.900156 12.9 C 15.3 12.6 15.9 12.6 16.299844 12.399844 " transform="matrix(8.333333, 0, 0, 8.333333, 0, 0)"/>
</svg>
