<?xml version="1.0" encoding="UTF-8"?>
<svg xmlns="http://www.w3.org/2000/svg" xmlns:xlink="http://www.w3.org/1999/xlink" width="200" height="200" viewBox="0 0 200 200">
<rect x="-20" y="-20" width="240" height="240" fill="rgb(100%, 100%, 100%)" fill-opacity="1"/>
<path fill="none" stroke-width="0.3" stroke-linecap="butt" stroke-linejoin="miter" stroke="rgb(0%, 0%, 0%)" stroke-opacity="1" stroke-miterlimit="4" d="M 3.699844 3.9 L 20.300156 3.9 C 21 4.2 21.6 4.899844 21.9 5.7 L 21.9 18.3 C 21.6 19.100156 21 19.8 20.300156 20.1 L 3.699844 20.1 C 3 19.8 2.4 19.100156 2.1 18.3 L 2.1 5.7 C 2.4 4.899844 3 4.2 3.699844 3.9 " transform="matrix(8.333333, 0, 0, 8.333333, 0, 0)"/>
<path fill="none" stroke-width="0.3" stroke-linecap="butt" stroke-linejoin="miter" stroke="rgb(0%, 0%, 0%)" stroke-opacity="1" stroke-miterlimit="4" d="M 3.9 5.7 L 20.1 5.7 L 20.1 8.4 L 3.9 8.4 L 3.9 5.7 " transform="matrix(8.333333, 0, 0, 8.333333, 0, 0)"/>
<path fill="none" stroke-width="0.3" stroke-linecap="butt" stroke-linejoin="miter" stroke="rgb(0%, 0%, 0%)" stroke-opacity="1" stroke-miterlimit="4" d="M 3.9 10.2 L 20.1 10.2 L 20.1 19.2 L 3.9 19.2 L 3.9 10.2 " transform="matrix(8.333333, 0, 0, 8.333333, 0, 0)"/>
</svg>
