<?xml version="1.0" encoding="UTF-8"?>
<svg xmlns="http://www.w3.org/2000/svg" xmlns:xlink="http://www.w3.org/1999/xlink" width="200" height="200" viewBox="0 0 200 200">
<rect x="-20" y="-20" width="240" height="240" fill="rgb(100%, 100%, 100%)" fill-opacity="1"/>
<path fill="none" stroke-width="0.3" stroke-linecap="butt" stroke-linejoin="miter" stroke="rgb(0%, 0%, 0%)" stroke-opacity="1" stroke-miterlimit="4" d="M 14.369531 9.344531 C 14.664375 11.129531 17.731406 11.764687 19.171406 12.745312 L 19.501875 13.011563 L 19.149375 13.037812 C 18.228281 13.261875 21.474844 13.436719 22.115156 13.874531 C 22.232812 13.955156 21.832031 13.905 21.690469 13.921875 C 21.309375 13.968281 20.917969 13.964062 20.546719 14.064375 C 20.170781 14.166094 19.159688 15.140625 19.031719 14.056875 C 19.002656 13.809844 19.555781 13.990781 19.740469 13.823906 C 20.221875 13.388438 18.440625 13.894687 17.792813 13.853438 C 17.302031 13.8225 16.826719 13.671563 16.343906 13.578281 C 14.666719 13.2525 13.138125 13.290469 11.422969 13.427812 C 11.355 13.433438 8.610469 13.8 8.024062 13.669688 C 7.373906 13.525313 6.788437 13.03875 6.122813 13.057969 C 6.013594 13.060781 6.320156 13.153125 6.421875 13.193437 C 6.909844 13.387969 7.504219 13.407656 7.891406 13.762031 C 8.037656 13.895625 7.586719 14.083594 7.388906 14.077969 C 6.773438 14.060625 6.089062 13.229062 5.602969 13.606875 C 5.479219 13.702969 6.028594 13.665469 6.020625 13.822031 C 5.985937 14.478281 4.6875 14.059219 4.050469 13.897969 C 3.89625 13.859063 4.458281 13.664062 4.362656 13.537031 C 4.107188 13.198125 3.539531 13.770937 3.115781 13.791094 C 2.747812 13.808438 2.38125 13.7325 2.01375 13.703437 L 1.727812 13.647656 L 2.01375 13.548281 C 5.47875 12.612656 2.031094 13.574063 1.822031 13.435781 C 1.715625 13.365469 4.239375 11.771719 4.354219 11.722969 C 6.314062 10.888594 8.424844 10.175625 10.555781 9.976406 C 11.986875 9.842344 13.1325 10.095469 14.369531 9.344531 " transform="matrix(8.333333, 0, 0, 8.333333, 0, 0)"/>
<path fill="none" stroke-width="0.3" stroke-linecap="butt" stroke-linejoin="miter" stroke="rgb(0%, 0%, 0%)" stroke-opacity="1" stroke-miterlimit="4" d="M 14.052187 9.367031 C 14.457187 9.3975 14.542031 10.032656 14.873906 10.266562 C 16.270312 11.251406 17.96625 11.736562 19.389375 12.73875 L 20.325469 13.164375 C 20.657344 13.244063 21.000469 13.286719 21.321094 13.403906 C 23.879531 14.33625 21.409688 13.970156 20.560781 14.206875 C 20.161406 14.317969 19.885312 14.833594 19.471875 14.806406 C 19.335469 14.797031 18.928594 14.210625 18.914531 14.192344 L 18.380625 14.025469 C 16.711875 13.891406 15.200625 13.4475 13.509375 13.470469 C 11.107969 13.502812 8.765156 14.131406 6.440625 14.175937 C 5.372813 14.196562 2.510625 14.354062 1.594688 13.656562 C 1.447969 13.544531 1.782188 13.335469 1.904062 13.197188 C 2.265 12.788906 2.685938 12.424219 3.148125 12.135937 C 4.809844 11.099531 7.036406 10.4775 8.92125 10.082344 C 10.651875 9.719531 12.319687 9.755625 14.052187 9.367031 " transform="matrix(8.333333, 0, 0, 8.333333, 0, 0)"/>
<path fill="none" stroke-width="0.3" stroke-linecap="butt" stroke-linejoin="miter" stroke="rgb(0%, 0%, 0%)" stroke-opacity="1" stroke-miterlimit="4" d="M 4.260469 12.946875 C 4.710938 12.946875 4.404375 13.056094 4.260469 12.946875 " transform="matrix(8.333333, 0, 0, 8.333333, 0, 0)"/>
</svg>
