<?xml version="1.0" encoding="UTF-8"?>
<svg xmlns="http://www.w3.org/2000/svg" xmlns:xlink="http://www.w3.org/1999/xlink" width="200" height="200" viewBox="0 0 200 200">
<rect x="-20" y="-20" width="240" height="240" fill="rgb(100%, 100%, 100%)" fill-opacity="1"/>
<path fill="none" stroke-width="0.3" stroke-linecap="butt" stroke-linejoin="miter" stroke="rgb(0%, 0%, 0%)" stroke-opacity="1" stroke-miterlimit="4" d="M 6.494063 8.581406 C 6.556875 8.583281 6.620156 8.585156 6.683438 8.587031 C 6.425625 9.088125 5.639531 9.01125 5.11875 9.226875 C 3.786563 9.777656 2.898281 11.106562 2.897812 12.547969 C 2.897812 14.809219 4.660312 15.987187 6.440156 16.034063 C 8.219531 16.081406 10.015781 14.998125 10.082812 12.736875 L 7.6275 12.736875 L 7.6275 12.372656 L 10.461562 12.548906 C 10.092187 14.085938 10.222031 14.743594 8.826094 15.7575 C 6.594375 17.378906 4.332187 16.319531 3.242344 14.541562 C 2.152969 12.764062 2.235469 10.2675 4.693594 9.014531 C 5.243437 8.734219 5.893594 8.725781 6.494063 8.581406 " transform="matrix(8.333333, 0, 0, 8.333333, 0, 0)"/>
<path fill="none" stroke-width="0.3" stroke-linecap="butt" stroke-linejoin="miter" stroke="rgb(0%, 0%, 0%)" stroke-opacity="1" stroke-miterlimit="4" d="M 28.733437 9.845625 C 29.580937 9.983437 30.417656 10.336406 31.104375 10.852031 L 30.218438 11.66625 C 29.73375 11.449219 29.295 11.038594 28.763906 11.015156 C 27.030469 10.939219 26.505 13.411875 27.449531 14.502187 C 28.114687 15.270469 29.044687 14.951719 29.8125 14.830312 L 29.8125 13.752187 L 28.652344 13.752187 L 31.124062 12.601875 L 31.124062 15.593438 C 29.831719 16.13625 28.378594 16.554375 27.010312 15.826875 C 25.130625 14.8275 25.201406 11.182969 27.058594 10.204688 C 27.563437 9.938437 28.175156 9.965156 28.733437 9.845625 " transform="matrix(8.333333, 0, 0, 8.333333, 0, 0)"/>
<path fill="none" stroke-width="0.3" stroke-linecap="butt" stroke-linejoin="miter" stroke="rgb(0%, 0%, 0%)" stroke-opacity="1" stroke-miterlimit="4" d="M 21.144844 9.936094 L 21.144844 16.101562 L 25.519687 16.101562 L 25.519687 14.902031 L 22.568906 14.902031 L 21.144844 9.936094 " transform="matrix(8.333333, 0, 0, 8.333333, 0, 0)"/>
<path fill="none" stroke-width="0.3" stroke-linecap="butt" stroke-linejoin="miter" stroke="rgb(0%, 0%, 0%)" stroke-opacity="1" stroke-miterlimit="4" d="M 9.388125 11.826562 L 9.388125 15.608906 L 10.330312 15.608906 L 10.330312 15.9825 L 9.009375 15.9825 L 9.009375 11.826562 " transform="matrix(8.333333, 0, 0, 8.333333, 0, 0)"/>
<path fill="none" stroke-width="0.3" stroke-linecap="butt" stroke-linejoin="miter" stroke="rgb(0%, 0%, 0%)" stroke-opacity="1" stroke-miterlimit="4" d="M 6.330938 12.958594 C 5.65875 12.680156 5.626406 11.563594 6.506719 11.849531 C 7.339688 12.120469 6.707813 12.766406 6.330938 12.958594 " transform="matrix(8.333333, 0, 0, 8.333333, 0, 0)"/>
<path fill="none" stroke-width="0.3" stroke-linecap="butt" stroke-linejoin="miter" stroke="rgb(0%, 0%, 0%)" stroke-opacity="1" stroke-miterlimit="4" d="M 5.939531 16.73625 C 4.003125 16.342031 2.418281 15.855 1.575469 13.8375 C 0.93375 12.299531 1.188281 10.656094 2.020312 9.3975 C 2.852344 8.138438 4.261875 7.264219 5.92875 7.264219 C 7.82625 7.264219 9.344531 8.374219 10.109531 9.868594 C 10.874531 11.363437 10.885781 13.242656 9.769687 14.781094 C 8.770312 16.158281 7.516406 16.484063 5.94 16.73625 " transform="matrix(8.333333, 0, 0, 8.333333, 0, 0)"/>
</svg>
