<?xml version="1.0" encoding="UTF-8"?>
<svg xmlns="http://www.w3.org/2000/svg" xmlns:xlink="http://www.w3.org/1999/xlink" width="200" height="200" viewBox="0 0 200 200">
<rect x="-20" y="-20" width="240" height="240" fill="rgb(100%, 100%, 100%)" fill-opacity="1"/>
<path fill="none" stroke-width="0.3" stroke-linecap="butt" stroke-linejoin="miter" stroke="rgb(0%, 0%, 0%)" stroke-opacity="1" stroke-miterlimit="4" d="M 8.535937 3.332812 L 10.022344 7.092187 L 11.50875 10.852031 L 10.467187 11.89125 L 9.800156 10.200469 L 6.098438 10.200469 L 5.202656 12.469219 C 4.940156 12.605156 4.677187 12.741094 4.414219 12.877031 L 4.326562 12.849375 C 4.190625 12.586406 4.054688 12.323437 3.91875 12.060937 L 5.621719 7.744219 L 7.325156 3.4275 C 7.728281 3.396094 8.131875 3.365156 8.535 3.33375 " transform="matrix(8.333333, 0, 0, 8.333333, 0, 0)"/>
<path fill="none" stroke-width="0.3" stroke-linecap="butt" stroke-linejoin="miter" stroke="rgb(0%, 0%, 0%)" stroke-opacity="1" stroke-miterlimit="4" d="M 7.952812 5.513438 L 9.267656 8.850469 L 6.632344 8.850469 L 7.952812 5.513438 " transform="matrix(8.333333, 0, 0, 8.333333, 0, 0)"/>
<path fill="none" stroke-width="0.3" stroke-linecap="butt" stroke-linejoin="miter" stroke="rgb(0%, 0%, 0%)" stroke-opacity="1" stroke-miterlimit="4" d="M 15.158437 8.797969 C 17.285625 7.57875 20.917969 8.235 20.009531 11.583281 C 19.877344 12.070781 19.506562 12.458906 19.254844 12.89625 L 12.852656 19.288125 C 12.559219 19.459687 12.265781 19.631719 11.972344 19.80375 L 7.820625 20.977031 C 7.544062 20.694844 7.267969 20.412656 6.991406 20.130469 L 8.240156 16.041094 C 8.408906 15.760781 8.577656 15.48 8.746406 15.199687 L 11.952187 11.998594 L 15.158437 8.797969 " transform="matrix(8.333333, 0, 0, 8.333333, 0, 0)"/>
</svg>
