<?xml version="1.0" encoding="UTF-8"?>
<svg xmlns="http://www.w3.org/2000/svg" xmlns:xlink="http://www.w3.org/1999/xlink" width="200" height="200" viewBox="0 0 200 200">
<rect x="-20" y="-20" width="240" height="240" fill="rgb(100%, 100%, 100%)" fill-opacity="1"/>
<path fill="none" stroke-width="0.3" stroke-linecap="butt" stroke-linejoin="miter" stroke="rgb(0%, 0%, 0%)" stroke-opacity="1" stroke-miterlimit="4" d="M 14.7 3.9 L 18.3 3.9 C 19.100156 4.2 19.8 4.899844 20.1 5.7 L 20.1 9.3 L 18.3 9.3 L 18.3 5.7 L 14.7 5.7 L 14.7 3.9 " transform="matrix(8.333333, 0, 0, 8.333333, 0, 0)"/>
<path fill="none" stroke-width="0.3" stroke-linecap="butt" stroke-linejoin="miter" stroke="rgb(0%, 0%, 0%)" stroke-opacity="1" stroke-miterlimit="4" d="M 5.7 9.3 L 3.9 9.3 L 3.9 5.7 C 4.2 4.899844 4.899844 4.2 5.7 3.9 L 9.3 3.9 L 9.3 5.7 L 5.7 5.7 " transform="matrix(8.333333, 0, 0, 8.333333, 0, 0)"/>
<path fill="none" stroke-width="0.3" stroke-linecap="butt" stroke-linejoin="miter" stroke="rgb(0%, 0%, 0%)" stroke-opacity="1" stroke-miterlimit="4" d="M 9.3 12 C 9.6 10.899844 9.500156 10.299844 10.599844 9.699844 C 12.399844 8.7 14.7 9.9 14.7 12 C 14.7 14.1 12.399844 15.3 10.599844 14.300156 C 9.500156 13.700156 9.6 13.100156 9.3 12 " transform="matrix(8.333333, 0, 0, 8.333333, 0, 0)"/>
<path fill="none" stroke-width="0.3" stroke-linecap="butt" stroke-linejoin="miter" stroke="rgb(0%, 0%, 0%)" stroke-opacity="1" stroke-miterlimit="4" d="M 3.9 14.7 L 5.7 14.7 L 5.7 18.3 L 9.3 18.3 L 9.3 20.1 L 5.7 20.1 C 4.899844 19.8 4.2 19.100156 3.9 18.3 L 3.9 14.7 " transform="matrix(8.333333, 0, 0, 8.333333, 0, 0)"/>
<path fill="none" stroke-width="0.3" stroke-linecap="butt" stroke-linejoin="miter" stroke="rgb(0%, 0%, 0%)" stroke-opacity="1" stroke-miterlimit="4" d="M 18.3 14.7 L 20.1 14.7 L 20.1 18.3 C 19.8 19.100156 19.100156 19.8 18.3 20.1 L 14.7 20.1 L 14.7 18.3 L 18.3 18.3 " transform="matrix(8.333333, 0, 0, 8.333333, 0, 0)"/>
</svg>
