<?xml version="1.0" encoding="UTF-8"?>
<svg xmlns="http://www.w3.org/2000/svg" xmlns:xlink="http://www.w3.org/1999/xlink" width="200" height="200" viewBox="0 0 200 200">
<rect x="-20" y="-20" width="240" height="240" fill="rgb(100%, 100%, 100%)" fill-opacity="1"/>
<path fill="none" stroke-width="0.3" stroke-linecap="butt" stroke-linejoin="miter" stroke="rgb(0%, 0%, 0%)" stroke-opacity="1" stroke-miterlimit="4" d="M 6.500156 8.600156 C 6.6 8.600156 6.6 8.600156 6.699844 8.600156 C 6.399844 9.099844 5.600156 9 5.1 9.200156 C 3.800156 9.800156 2.900156 11.1 2.900156 12.500156 C 2.900156 14.799844 4.700156 15.999844 6.399844 15.999844 C 8.199844 16.100156 9.999844 15 10.100156 12.699844 L 7.599844 12.699844 L 7.599844 12.399844 L 10.5 12.500156 C 10.100156 14.1 10.2 14.7 8.799844 15.800156 C 6.6 17.4 4.299844 16.299844 3.200156 14.499844 C 2.199844 12.800156 2.199844 10.299844 4.700156 9 C 5.199844 8.7 5.900156 8.7 6.500156 8.600156 " transform="matrix(8.333333, 0, 0, 8.333333, 0, 0)"/>
<path fill="none" stroke-width="0.3" stroke-linecap="butt" stroke-linejoin="miter" stroke="rgb(0%, 0%, 0%)" stroke-opacity="1" stroke-miterlimit="4" d="M 28.700156 9.800156 C 29.600156 9.999844 30.399844 10.299844 31.100156 10.899844 L 30.200156 11.7 C 29.7 11.4 29.300156 11.000156 28.8 11.000156 C 27 10.899844 26.499844 13.400156 27.399844 14.499844 C 28.100156 15.3 29.000156 15 29.799844 14.799844 L 29.799844 13.8 L 28.700156 13.8 L 31.100156 12.6 L 31.100156 15.6 C 29.799844 16.100156 28.400156 16.599844 27 15.800156 C 25.100156 14.799844 25.2 11.199844 27.099844 10.2 C 27.6 9.9 28.2 9.999844 28.700156 9.800156 " transform="matrix(8.333333, 0, 0, 8.333333, 0, 0)"/>
<path fill="none" stroke-width="0.3" stroke-linecap="butt" stroke-linejoin="miter" stroke="rgb(0%, 0%, 0%)" stroke-opacity="1" stroke-miterlimit="4" d="M 21.099844 9.9 L 21.099844 16.100156 L 25.5 16.100156 L 25.5 14.900156 L 22.599844 14.900156 L 21.099844 9.9 " transform="matrix(8.333333, 0, 0, 8.333333, 0, 0)"/>
<path fill="none" stroke-width="0.3" stroke-linecap="butt" stroke-linejoin="miter" stroke="rgb(0%, 0%, 0%)" stroke-opacity="1" stroke-miterlimit="4" d="M 9.399844 11.799844 L 9.399844 15.6 L 10.299844 15.6 L 10.299844 15.999844 L 9 15.999844 L 9 11.799844 " transform="matrix(8.333333, 0, 0, 8.333333, 0, 0)"/>
<path fill="none" stroke-width="0.3" stroke-linecap="butt" stroke-linejoin="miter" stroke="rgb(0%, 0%, 0%)" stroke-opacity="1" stroke-miterlimit="4" d="M 6.3 12.999844 C 5.7 12.699844 5.600156 11.600156 6.500156 11.799844 C 7.299844 12.099844 6.699844 12.800156 6.3 12.999844 " transform="matrix(8.333333, 0, 0, 8.333333, 0, 0)"/>
<path fill="none" stroke-width="0.3" stroke-linecap="butt" stroke-linejoin="miter" stroke="rgb(0%, 0%, 0%)" stroke-opacity="1" stroke-miterlimit="4" d="M 5.900156 16.700156 C 3.999844 16.299844 2.4 15.9 1.599844 13.8 C 0.9 12.3 1.2 10.700156 2.000156 9.399844 C 2.900156 8.1 4.299844 7.299844 5.900156 7.299844 C 7.8 7.299844 9.3 8.4 10.100156 9.9 C 10.899844 11.4 10.899844 13.2 9.800156 14.799844 C 8.799844 16.2 7.5 16.5 5.900156 16.700156 " transform="matrix(8.333333, 0, 0, 8.333333, 0, 0)"/>
</svg>
