<?xml version="1.0" encoding="UTF-8"?>
<svg xmlns="http://www.w3.org/2000/svg" xmlns:xlink="http://www.w3.org/1999/xlink" width="200" height="200" viewBox="0 0 200 200">
<rect x="-20" y="-20" width="240" height="240" fill="rgb(100%, 100%, 100%)" fill-opacity="1"/>
<path fill="none" stroke-width="0.3" stroke-linecap="butt" stroke-linejoin="miter" stroke="rgb(0%, 0%, 0%)" stroke-opacity="1" stroke-miterlimit="4" d="M 11.1 3.9 L 12.9 3.9 L 12.9 8.4 C 13.5 8.199844 14.000156 7.899844 14.7 7.899844 C 16.899844 7.599844 19.5 9.200156 19.599844 11.600156 C 19.700156 13.100156 19.299844 14.900156 18.500156 16.5 C 17.799844 18.099844 16.700156 19.599844 15.6 20.499844 C 14.199844 21.699844 13.299844 20.1 12 20.1 C 11.1 20.1 10.2 21 9.3 21 C 8.000156 21 6.699844 18.399844 6.200156 17.600156 C 5.4 16.100156 4.5 14.000156 4.5 12.200156 C 4.5 10.299844 5.199844 8.7 7.599844 8.000156 C 8.199844 7.899844 8.799844 7.8 9.3 7.899844 C 9.999844 7.899844 10.5 8.199844 11.1 8.4 L 11.1 3.9 " transform="matrix(8.333333, 0, 0, 8.333333, 0, 0)"/>
<path fill="none" stroke-width="0.3" stroke-linecap="butt" stroke-linejoin="miter" stroke="rgb(0%, 0%, 0%)" stroke-opacity="1" stroke-miterlimit="4" d="M 4.899844 4.599844 C 7.2 2.300156 9 4.100156 11.1 5.7 C 8.600156 6.500156 6.200156 7.5 4.899844 4.599844 " transform="matrix(8.333333, 0, 0, 8.333333, 0, 0)"/>
<path fill="none" stroke-width="0.3" stroke-linecap="butt" stroke-linejoin="miter" stroke="rgb(0%, 0%, 0%)" stroke-opacity="1" stroke-miterlimit="4" d="M 8.900156 9.699844 C 9.3 9.800156 9.800156 9.9 10.299844 9.999844 L 11.1 10.400156 L 12.9 10.400156 L 13.700156 9.999844 C 14.199844 9.9 14.7 9.6 15.099844 9.699844 C 17.600156 9.699844 18 11.300156 17.7 13.100156 C 17.300156 14.900156 16.2 16.899844 15.500156 17.900156 C 15.200156 18.3 14.799844 18.800156 14.4 19.2 C 12.3 18.3 11.7 18.3 9.6 19.2 C 8.799844 18.3 7.5 16.5 6.699844 14.7 C 5.900156 12.9 5.7 11.1 7.400156 10.100156 C 7.8 9.800156 8.4 9.800156 8.900156 9.699844 " transform="matrix(8.333333, 0, 0, 8.333333, 0, 0)"/>
</svg>
