<?xml version="1.0" encoding="UTF-8"?>
<svg xmlns="http://www.w3.org/2000/svg" xmlns:xlink="http://www.w3.org/1999/xlink" width="200" height="200" viewBox="0 0 200 200">
<rect x="-20" y="-20" width="240" height="240" fill="rgb(100%, 100%, 100%)" fill-opacity="1"/>
<path fill="none" stroke-width="0.3" stroke-linecap="butt" stroke-linejoin="miter" stroke="rgb(0%, 0%, 0%)" stroke-opacity="1" stroke-miterlimit="4" d="M 5.199844 1.2 L 18.800156 1.2 C 21.3 1.700156 22.299844 2.7 22.8 5.199844 L 22.8 18.800156 C 22.299844 21.3 21.3 22.299844 18.800156 22.8 L 5.199844 22.8 C 2.7 22.299844 1.700156 21.3 1.2 18.800156 L 1.2 5.199844 C 1.700156 2.7 2.7 1.700156 5.199844 1.2 " transform="matrix(8.333333, 0, 0, 8.333333, 0, 0)"/>
<path fill="none" stroke-width="0.3" stroke-linecap="butt" stroke-linejoin="miter" stroke="rgb(0%, 0%, 0%)" stroke-opacity="1" stroke-miterlimit="4" d="M 12.200156 6.699844 L 13.8 8.1 L 13.8 7.400156 C 13.899844 7.299844 14.000156 7.2 14.1 7.100156 L 15.699844 7.100156 C 15.800156 7.2 15.9 7.299844 15.999844 7.400156 L 15.999844 10.299844 L 17.199844 11.499844 C 17.4 11.799844 17.1 12.200156 16.8 12.500156 L 15.999844 12.500156 L 15.999844 16.5 C 15.699844 16.8 15.399844 17.1 15.099844 17.4 L 8.799844 17.4 C 8.499844 17.1 8.199844 16.8 8.000156 16.5 L 8.000156 12.399844 L 7.2 12.399844 C 6.9 12.200156 6.6 11.799844 6.800156 11.499844 L 11.799844 6.699844 C 11.900156 6.699844 12.099844 6.699844 12.200156 6.699844 " transform="matrix(8.333333, 0, 0, 8.333333, 0, 0)"/>
</svg>
