<?xml version="1.0" encoding="UTF-8"?>
<svg xmlns="http://www.w3.org/2000/svg" xmlns:xlink="http://www.w3.org/1999/xlink" width="200" height="200" viewBox="0 0 200 200">
<rect x="-20" y="-20" width="240" height="240" fill="rgb(100%, 100%, 100%)" fill-opacity="1"/>
<path fill="none" stroke-width="0.3" stroke-linecap="butt" stroke-linejoin="miter" stroke="rgb(0%, 0%, 0%)" stroke-opacity="1" stroke-miterlimit="4" d="M 18.999844 7.700156 L 22.299844 7.700156 C 22.400156 7.8 22.599844 8.000156 22.8 8.199844 L 22.8 11.7 C 22.599844 11.799844 22.400156 12 22.299844 12.200156 L 18.999844 12.200156 C 18.800156 12 18.699844 11.799844 18.500156 11.7 L 18.500156 8.199844 C 18.699844 8.000156 18.800156 7.8 18.999844 7.700156 " transform="matrix(8.333333, 0, 0, 8.333333, 0, 0)"/>
<path fill="none" stroke-width="0.3" stroke-linecap="butt" stroke-linejoin="miter" stroke="rgb(0%, 0%, 0%)" stroke-opacity="1" stroke-miterlimit="4" d="M 1.899844 7.700156 L 5.199844 7.700156 C 5.4 7.8 5.600156 8.000156 5.7 8.199844 L 5.7 11.7 C 5.600156 11.799844 5.4 12 5.199844 12.200156 L 1.899844 12.200156 C 1.8 12 1.599844 11.799844 1.5 11.7 L 1.5 8.199844 C 1.599844 8.000156 1.8 7.8 1.899844 7.700156 " transform="matrix(8.333333, 0, 0, 8.333333, 0, 0)"/>
<path fill="none" stroke-width="0.3" stroke-linecap="butt" stroke-linejoin="miter" stroke="rgb(0%, 0%, 0%)" stroke-opacity="1" stroke-miterlimit="4" d="M 6.200156 12.099844 L 9.500156 12.099844 C 9.699844 12.3 9.800156 12.399844 9.999844 12.6 L 9.999844 16.100156 C 9.800156 16.299844 9.699844 16.400156 9.500156 16.599844 L 6.200156 16.599844 C 6.099844 16.400156 5.900156 16.299844 5.799844 16.100156 L 5.799844 12.6 C 5.900156 12.399844 6.099844 12.3 6.200156 12.099844 " transform="matrix(8.333333, 0, 0, 8.333333, 0, 0)"/>
<path fill="none" stroke-width="0.3" stroke-linecap="butt" stroke-linejoin="miter" stroke="rgb(0%, 0%, 0%)" stroke-opacity="1" stroke-miterlimit="4" d="M 14.7 12.099844 L 18 12.099844 C 18.099844 12.3 18.3 12.399844 18.500156 12.6 L 18.500156 16.100156 C 18.3 16.299844 18.099844 16.400156 18 16.599844 L 14.7 16.599844 C 14.499844 16.400156 14.4 16.299844 14.199844 16.100156 L 14.199844 12.6 C 14.4 12.399844 14.499844 12.3 14.7 12.099844 " transform="matrix(8.333333, 0, 0, 8.333333, 0, 0)"/>
</svg>
