<?xml version="1.0" encoding="UTF-8"?>
<svg xmlns="http://www.w3.org/2000/svg" xmlns:xlink="http://www.w3.org/1999/xlink" width="200" height="200" viewBox="0 0 200 200">
<rect x="-20" y="-20" width="240" height="240" fill="rgb(100%, 100%, 100%)" fill-opacity="1"/>
<path fill="none" stroke-width="0.3" stroke-linecap="butt" stroke-linejoin="miter" stroke="rgb(0%, 0%, 0%)" stroke-opacity="1" stroke-miterlimit="4" d="M 11.499844 5.7 L 12.6 5.7 C 12.9 5.900156 13.100156 6 13.400156 6.200156 L 13.8 6.9 C 15 6.999844 18.800156 6.9 18.699844 8.900156 L 19.5 9.099844 C 20.199844 9.500156 20.7 10.2 20.900156 11.000156 L 20.600156 13.8 C 20.4 14.4 20.000156 15 19.400156 15.399844 L 16.2 16.5 C 14.799844 17.499844 14.000156 18.099844 12.200156 18.3 L 11.799844 18.3 C 9.999844 18.099844 9.200156 17.499844 7.700156 16.5 L 4.5 15.200156 C 4.100156 14.7 3.800156 14.199844 3.399844 13.700156 L 3.099844 11.000156 C 3.3 10.2 3.9 9.500156 4.5 9.099844 L 5.300156 8.900156 C 5.199844 6.9 9 6.999844 10.299844 6.9 L 10.700156 6.200156 C 10.899844 6 11.199844 5.900156 11.499844 5.7 " transform="matrix(8.333333, 0, 0, 8.333333, 0, 0)"/>
<path fill="none" stroke-width="0.3" stroke-linecap="butt" stroke-linejoin="miter" stroke="rgb(0%, 0%, 0%)" stroke-opacity="1" stroke-miterlimit="4" d="M 11.499844 6.6 L 12.6 6.6 C 13.5 8.199844 14.300156 7.700156 15.999844 8.000156 C 16.700156 8.1 17.799844 8.1 17.799844 8.799844 C 17.900156 10.5 17.499844 12.6 16.700156 14.300156 C 15.9 15.9 14.499844 16.899844 12.999844 17.300156 C 11.4 17.600156 9.699844 17.199844 8.499844 15.800156 C 7.599844 14.900156 6.999844 13.8 6.699844 12.500156 C 6.3 11.300156 6.200156 9.999844 6.200156 8.799844 C 6.3 8.1 7.400156 8.1 8.000156 8.000156 C 9.699844 7.700156 10.599844 8.199844 11.499844 6.6 " transform="matrix(8.333333, 0, 0, 8.333333, 0, 0)"/>
<path fill="none" stroke-width="0.3" stroke-linecap="butt" stroke-linejoin="miter" stroke="rgb(0%, 0%, 0%)" stroke-opacity="1" stroke-miterlimit="4" d="M 12 9.500156 L 14.799844 10.2 C 15 10.5 14.799844 10.899844 14.600156 11.1 L 12 10.400156 L 9.399844 11.1 C 9.200156 10.899844 9 10.5 9.200156 10.2 L 12 9.500156 " transform="matrix(8.333333, 0, 0, 8.333333, 0, 0)"/>
<path fill="none" stroke-width="0.3" stroke-linecap="butt" stroke-linejoin="miter" stroke="rgb(0%, 0%, 0%)" stroke-opacity="1" stroke-miterlimit="4" d="M 18.699844 9.800156 L 19.299844 9.9 C 19.5 10.2 19.8 10.599844 20.000156 10.899844 L 19.8 13.700156 C 19.599844 14.000156 19.299844 14.300156 19.100156 14.499844 L 17.300156 15.200156 C 18.200156 13.299844 18.500156 11.799844 18.699844 9.800156 " transform="matrix(8.333333, 0, 0, 8.333333, 0, 0)"/>
<path fill="none" stroke-width="0.3" stroke-linecap="butt" stroke-linejoin="miter" stroke="rgb(0%, 0%, 0%)" stroke-opacity="1" stroke-miterlimit="4" d="M 5.300156 9.800156 C 5.499844 11.799844 5.799844 13.299844 6.699844 15.099844 L 4.8 14.4 C 4.599844 14.1 4.5 13.899844 4.299844 13.599844 L 3.999844 10.899844 C 4.2 10.599844 4.5 10.299844 4.700156 9.9 L 5.300156 9.800156 " transform="matrix(8.333333, 0, 0, 8.333333, 0, 0)"/>
</svg>
