<?xml version="1.0" encoding="UTF-8"?>
<svg xmlns="http://www.w3.org/2000/svg" xmlns:xlink="http://www.w3.org/1999/xlink" width="200" height="200" viewBox="0 0 200 200">
<rect x="-20" y="-20" width="240" height="240" fill="rgb(100%, 100%, 100%)" fill-opacity="1"/>
<path fill="none" stroke-width="0.3" stroke-linecap="butt" stroke-linejoin="miter" stroke="rgb(0%, 0%, 0%)" stroke-opacity="1" stroke-miterlimit="4" d="M 18.990469 7.679531 L 22.285781 7.679531 C 22.443281 7.846875 22.600781 8.014219 22.758281 8.181563 L 22.758281 11.678906 C 22.600781 11.84625 22.443281 12.013125 22.285781 12.180469 L 18.990469 12.180469 C 18.832969 12.013125 18.675469 11.84625 18.517969 11.678906 L 18.517969 8.181563 C 18.675469 8.014219 18.832969 7.846875 18.990469 7.679531 " transform="matrix(8.333333, 0, 0, 8.333333, 0, 0)"/>
<path fill="none" stroke-width="0.3" stroke-linecap="butt" stroke-linejoin="miter" stroke="rgb(0%, 0%, 0%)" stroke-opacity="1" stroke-miterlimit="4" d="M 1.9425 7.680469 L 5.237812 7.680469 C 5.395313 7.847812 5.552812 8.014687 5.710312 8.182031 L 5.710312 11.679375 C 5.552812 11.846719 5.395313 12.014062 5.237812 12.180937 L 1.9425 12.180937 C 1.785 12.014062 1.6275 11.846719 1.47 11.679375 L 1.47 8.182031 C 1.6275 8.014687 1.785 7.847812 1.9425 7.680469 " transform="matrix(8.333333, 0, 0, 8.333333, 0, 0)"/>
<path fill="none" stroke-width="0.3" stroke-linecap="butt" stroke-linejoin="miter" stroke="rgb(0%, 0%, 0%)" stroke-opacity="1" stroke-miterlimit="4" d="M 6.230625 12.089062 L 9.525469 12.089062 C 9.682969 12.256406 9.840937 12.423281 9.998437 12.590625 L 9.998437 16.087969 C 9.840937 16.255312 9.682969 16.422656 9.525469 16.589531 L 6.230625 16.589531 C 6.073125 16.422656 5.915625 16.255312 5.758125 16.087969 L 5.758125 12.590625 C 5.915625 12.423281 6.073125 12.256406 6.230625 12.089062 " transform="matrix(8.333333, 0, 0, 8.333333, 0, 0)"/>
<path fill="none" stroke-width="0.3" stroke-linecap="butt" stroke-linejoin="miter" stroke="rgb(0%, 0%, 0%)" stroke-opacity="1" stroke-miterlimit="4" d="M 14.696719 12.089062 L 17.992031 12.089062 C 18.149531 12.256406 18.307031 12.423281 18.464531 12.590625 L 18.464531 16.087969 C 18.307031 16.255312 18.149531 16.422656 17.992031 16.589531 L 14.696719 16.589531 C 14.539219 16.422656 14.381719 16.255312 14.224219 16.087969 L 14.224219 12.590625 C 14.381719 12.423281 14.539219 12.256406 14.696719 12.089062 " transform="matrix(8.333333, 0, 0, 8.333333, 0, 0)"/>
</svg>
