<?xml version="1.0" encoding="UTF-8"?>
<svg xmlns="http://www.w3.org/2000/svg" xmlns:xlink="http://www.w3.org/1999/xlink" width="200" height="200" viewBox="0 0 200 200">
<rect x="-20" y="-20" width="240" height="240" fill="rgb(100%, 100%, 100%)" fill-opacity="1"/>
<path fill="none" stroke-width="0.3" stroke-linecap="butt" stroke-linejoin="miter" stroke="rgb(0%, 0%, 0%)" stroke-opacity="1" stroke-miterlimit="4" d="M 8.499844 3.3 L 9.999844 7.100156 L 11.499844 10.899844 L 10.5 11.900156 L 9.800156 10.2 L 6.099844 10.2 L 5.199844 12.500156 C 4.899844 12.6 4.700156 12.699844 4.400156 12.9 L 4.299844 12.800156 C 4.2 12.6 4.100156 12.3 3.9 12.099844 L 5.600156 7.700156 L 7.299844 3.399844 C 7.700156 3.399844 8.1 3.399844 8.499844 3.3 " transform="matrix(8.333333, 0, 0, 8.333333, 0, 0)"/>
<path fill="none" stroke-width="0.3" stroke-linecap="butt" stroke-linejoin="miter" stroke="rgb(0%, 0%, 0%)" stroke-opacity="1" stroke-miterlimit="4" d="M 8.000156 5.499844 L 9.3 8.900156 L 6.6 8.900156 L 8.000156 5.499844 " transform="matrix(8.333333, 0, 0, 8.333333, 0, 0)"/>
<path fill="none" stroke-width="0.3" stroke-linecap="butt" stroke-linejoin="miter" stroke="rgb(0%, 0%, 0%)" stroke-opacity="1" stroke-miterlimit="4" d="M 15.200156 8.799844 C 17.300156 7.599844 20.900156 8.199844 20.000156 11.600156 C 19.899844 12.099844 19.5 12.500156 19.299844 12.9 L 16.100156 16.100156 L 12.9 19.299844 C 12.6 19.5 12.3 19.599844 12 19.8 L 7.8 21 C 7.5 20.7 7.299844 20.4 6.999844 20.1 L 8.199844 15.999844 C 8.4 15.800156 8.600156 15.500156 8.7 15.200156 L 12 12 L 15.200156 8.799844 " transform="matrix(8.333333, 0, 0, 8.333333, 0, 0)"/>
</svg>
