<?xml version="1.0" encoding="UTF-8"?>
<svg xmlns="http://www.w3.org/2000/svg" xmlns:xlink="http://www.w3.org/1999/xlink" width="200" height="200" viewBox="0 0 200 200">
<rect x="-20" y="-20" width="240" height="240" fill="rgb(100%, 100%, 100%)" fill-opacity="1"/>
<path fill="none" stroke-width="0.3" stroke-linecap="butt" stroke-linejoin="miter" stroke="rgb(0%, 0%, 0%)" stroke-opacity="1" stroke-miterlimit="4" d="M 27.999844 21.999844 L 34.400156 28.400156 L 31.2 31.599844 L 27.999844 34.700156 L 24.800156 31.599844 L 21.699844 28.400156 " transform="matrix(8.333333, 0, 0, 8.333333, 0, 0)"/>
<path fill="none" stroke-width="0.3" stroke-linecap="butt" stroke-linejoin="miter" stroke="rgb(0%, 0%, 0%)" stroke-opacity="1" stroke-miterlimit="4" d="M 27.999844 22.8 C 29.4 23.7 30.699844 25.5 32.199844 26.1 C 32.799844 26.300156 33.500156 26.300156 34.2 26.4 C 34.700156 26.499844 35.4 26.4 35.900156 26.600156 C 36.099844 26.7 36.099844 27.099844 35.900156 27.099844 C 34.700156 27.399844 33.399844 26.7 32.199844 27.099844 C 30.9 27.500156 30.200156 28.899844 29.199844 29.799844 C 28.899844 30.099844 28.599844 30.800156 28.2 30.800156 C 24.3 30.399844 28.5 28.299844 28.5 27.500156 C 28.5 27.099844 27.999844 26.799844 27.6 26.799844 C 27.200156 26.799844 27 27.399844 26.7 27.6 C 25.899844 28.400156 24.399844 29.000156 24.500156 30.200156 C 24.500156 30.6 24.999844 30.800156 25.299844 31.100156 C 26.199844 31.899844 26.900156 33.200156 27.999844 33.099844 C 29.199844 33.099844 29.900156 31.700156 30.800156 30.9 C 31.899844 30 34.5 29.000156 35.900156 29.600156 C 36.099844 29.7 36.099844 30.099844 35.900156 30.200156 C 35.4 30.399844 34.700156 30.3 34.2 30.3 C 33 30.500156 31.899844 30.9 30.999844 31.599844 C 30.099844 32.4 29.300156 33.999844 27.999844 33.999844 C 26.4 33.999844 24.999844 31.2 23.600156 30.699844 C 22.5 30.200156 21.200156 30.6 20.1 30.200156 C 19.899844 30.099844 19.899844 29.7 20.1 29.600156 C 20.600156 29.499844 21.200156 29.7 21.699844 29.7 C 22.299844 29.7 23.000156 29.799844 23.600156 29.600156 C 25.100156 29.1 26.000156 26.199844 27.6 26.000156 C 27.999844 25.899844 28.299844 26.4 28.599844 26.600156 C 30.399844 28.2 27.9 27.999844 27.6 29.499844 C 27.500156 29.7 27.9 30 28.2 30 C 29.300156 29.7 29.799844 28.400156 30.500156 27.6 C 30.800156 27.3 31.299844 27 31.299844 26.600156 C 31.299844 26.199844 30.800156 25.899844 30.500156 25.700156 C 29.799844 24.9 29.1 23.600156 27.999844 23.600156 C 26.600156 23.7 25.299844 26.1 24.099844 26.7 C 23.4 27.099844 20.900156 27.500156 20.1 27.099844 C 20.000156 27 19.899844 26.7 20.1 26.600156 C 21.999844 25.8 23.300156 26.600156 24.999844 25.100156 C 26.000156 24.3 27 23.499844 27.999844 22.8 " transform="matrix(8.333333, 0, 0, 8.333333, 0, 0)"/>
</svg>
