<?xml version="1.0" encoding="UTF-8"?>
<svg xmlns="http://www.w3.org/2000/svg" xmlns:xlink="http://www.w3.org/1999/xlink" width="200" height="200" viewBox="0 0 200 200">
<rect x="-20" y="-20" width="240" height="240" fill="rgb(100%, 100%, 100%)" fill-opacity="1"/>
<path fill="none" stroke-width="0.3" stroke-linecap="butt" stroke-linejoin="miter" stroke="rgb(0%, 0%, 0%)" stroke-opacity="1" stroke-miterlimit="4" d="M 14.4 9.3 C 14.7 11.1 17.7 11.799844 19.2 12.699844 L 19.5 12.999844 L 19.100156 12.999844 C 18.200156 13.299844 21.500156 13.400156 22.100156 13.899844 C 22.2 14.000156 21.800156 13.899844 21.699844 13.899844 C 21.3 14.000156 20.900156 14.000156 20.499844 14.1 C 20.199844 14.199844 19.2 15.099844 18.999844 14.1 C 18.999844 13.8 19.599844 14.000156 19.700156 13.8 C 20.199844 13.400156 18.399844 13.899844 17.799844 13.899844 C 17.300156 13.8 16.8 13.700156 16.299844 13.599844 C 14.7 13.299844 13.100156 13.299844 11.4 13.400156 C 11.4 13.400156 8.600156 13.8 8.000156 13.700156 C 7.400156 13.5 6.800156 12.999844 6.099844 13.100156 C 6 13.100156 6.3 13.2 6.399844 13.2 C 6.9 13.400156 7.5 13.400156 7.899844 13.8 C 8.000156 13.899844 7.599844 14.1 7.400156 14.1 C 6.800156 14.1 6.099844 13.2 5.600156 13.599844 C 5.499844 13.700156 6 13.700156 6 13.8 C 6 14.499844 4.700156 14.1 4.100156 13.899844 C 3.9 13.899844 4.5 13.700156 4.400156 13.5 C 4.100156 13.2 3.500156 13.8 3.099844 13.8 C 2.7 13.8 2.4 13.700156 2.000156 13.700156 L 1.700156 13.599844 L 2.000156 13.5 C 5.499844 12.6 2.000156 13.599844 1.8 13.400156 C 1.700156 13.400156 4.2 11.799844 4.400156 11.7 C 6.3 10.899844 8.4 10.2 10.599844 9.999844 C 12 9.800156 13.100156 10.100156 14.4 9.3 " transform="matrix(8.333333, 0, 0, 8.333333, 0, 0)"/>
<path fill="none" stroke-width="0.3" stroke-linecap="butt" stroke-linejoin="miter" stroke="rgb(0%, 0%, 0%)" stroke-opacity="1" stroke-miterlimit="4" d="M 14.1 9.399844 C 14.499844 9.399844 14.499844 9.999844 14.900156 10.299844 C 16.299844 11.300156 18 11.7 19.400156 12.699844 L 20.300156 13.2 C 20.7 13.2 21 13.299844 21.3 13.400156 C 23.900156 14.300156 21.399844 14.000156 20.600156 14.199844 C 20.199844 14.300156 19.899844 14.799844 19.5 14.799844 C 19.299844 14.799844 18.9 14.199844 18.9 14.199844 L 18.399844 14.000156 C 16.700156 13.899844 15.200156 13.400156 13.5 13.5 C 11.1 13.5 8.799844 14.1 6.399844 14.199844 C 5.4 14.199844 2.499844 14.4 1.599844 13.700156 C 1.400156 13.5 1.8 13.299844 1.899844 13.2 C 2.300156 12.800156 2.7 12.399844 3.099844 12.099844 C 4.8 11.1 6.999844 10.5 8.900156 10.100156 C 10.700156 9.699844 12.3 9.800156 14.1 9.399844 " transform="matrix(8.333333, 0, 0, 8.333333, 0, 0)"/>
<path fill="none" stroke-width="0.3" stroke-linecap="butt" stroke-linejoin="miter" stroke="rgb(0%, 0%, 0%)" stroke-opacity="1" stroke-miterlimit="4" d="M 4.299844 12.9 C 4.700156 12.9 4.400156 13.100156 4.299844 12.9 " transform="matrix(8.333333, 0, 0, 8.333333, 0, 0)"/>
</svg>
