<?xml version="1.0" encoding="UTF-8"?>
<svg xmlns="http://www.w3.org/2000/svg" xmlns:xlink="http://www.w3.org/1999/xlink" width="200" height="200" viewBox="0 0 200 200">
<rect x="-20" y="-20" width="240" height="240" fill="rgb(100%, 100%, 100%)" fill-opacity="1"/>
<path fill="none" stroke-width="0.3" stroke-linecap="butt" stroke-linejoin="miter" stroke="rgb(0%, 0%, 0%)" stroke-opacity="1" stroke-miterlimit="4" d="M 28.024687 22.001719 L 34.393125 28.370156 L 31.208906 31.554375 L 28.024687 34.738125 L 24.840469 31.554375 L 21.65625 28.370156 " transform="matrix(8.333333, 0, 0, 8.333333, 0, 0)"/>
<path fill="none" stroke-width="0.3" stroke-linecap="butt" stroke-linejoin="miter" stroke="rgb(0%, 0%, 0%)" stroke-opacity="1" stroke-miterlimit="4" d="M 28.025156 22.756406 C 29.390156 23.7 30.70875 25.476562 32.212969 26.08875 C 32.819531 26.335313 33.503906 26.311875 34.153125 26.398125 C 34.745156 26.476875 35.382188 26.358281 35.935313 26.58375 C 36.102187 26.651719 36.109687 27.079219 35.935313 27.124219 C 34.733438 27.432656 33.386719 26.691094 32.212969 27.094219 C 30.944531 27.529219 30.230156 28.900312 29.247187 29.8125 C 28.890937 30.143906 28.643906 30.838594 28.160156 30.786562 C 24.310781 30.375469 28.47 28.3125 28.475156 27.529687 C 28.477969 27.145781 27.972656 26.768437 27.589688 26.794219 C 27.175313 26.821406 26.976562 27.354375 26.684531 27.64875 C 25.903594 28.43625 24.445781 29.048437 24.497344 30.156094 C 24.517031 30.571875 25.028437 30.799687 25.332187 31.08375 C 26.155312 31.853437 26.89875 33.16875 28.025156 33.128437 C 29.214844 33.085781 29.915156 31.679063 30.833437 30.921094 C 31.896562 30.043594 34.504687 28.966406 35.920313 29.616094 C 36.084375 29.691094 36.102187 30.087656 35.935313 30.156094 C 35.382656 30.383437 34.745156 30.262969 34.153125 30.342187 C 33.042187 30.489844 31.899375 30.890625 31.039687 31.60875 C 30.054844 32.431875 29.293125 33.983906 28.009687 33.983906 C 26.442187 33.983906 24.986719 31.240781 23.566875 30.651562 C 22.48875 30.204375 21.168281 30.626719 20.099531 30.156562 C 19.934531 30.083906 19.926094 29.664375 20.099531 29.616094 C 20.629219 29.468906 21.196875 29.693437 21.746719 29.698594 C 22.348594 29.70375 22.985625 29.849531 23.551875 29.646094 C 25.065 29.101406 26.048437 26.210625 27.604688 25.968281 C 27.990469 25.908281 28.292813 26.350781 28.585781 26.608125 C 30.439219 28.235625 27.858281 28.01625 27.559687 29.496094 C 27.508594 29.747812 27.92625 30.027188 28.175156 29.961094 C 29.25 29.676094 29.779687 28.416562 30.512344 27.579375 C 30.786562 27.265781 31.268437 27.000469 31.267031 26.58375 C 31.266094 26.183906 30.786562 25.941562 30.50625 25.656562 C 29.752031 24.889688 29.085 23.572031 28.009687 23.611875 C 26.637187 23.6625 25.342031 26.115 24.107344 26.70375 C 23.361562 27.059531 20.8725 27.465 20.129531 27.124219 C 19.965469 27.049219 19.947656 26.652188 20.114531 26.58375 C 21.991875 25.812656 23.294062 26.566406 25.009219 25.131094 C 25.990781 24.309844 26.972344 23.483438 28.025156 22.756406 " transform="matrix(8.333333, 0, 0, 8.333333, 0, 0)"/>
</svg>
