<?xml version="1.0" encoding="UTF-8"?>
<svg xmlns="http://www.w3.org/2000/svg" xmlns:xlink="http://www.w3.org/1999/xlink" width="200" height="200" viewBox="0 0 200 200">
<rect x="-20" y="-20" width="240" height="240" fill="rgb(100%, 100%, 100%)" fill-opacity="1"/>
<path fill="none" stroke-width="0.3" stroke-linecap="butt" stroke-linejoin="miter" stroke="rgb(0%, 0%, 0%)" stroke-opacity="1" stroke-miterlimit="4" d="M 11.1 3.9 L 12.9 3.9 L 12.9 8.4 C 13.483594 8.225156 14.044688 7.938281 14.650781 7.875938 C 16.903125 7.642969 19.460156 9.245625 19.612031 11.648438 C 19.703906 13.102031 19.258125 14.86125 18.511875 16.489687 C 17.766094 18.118125 16.719844 19.615312 15.610312 20.543437 C 14.228438 21.699844 13.307812 20.1 12 20.1 C 11.05125 20.1 10.24875 21.002344 9.3 21 C 7.981875 20.996719 6.668437 18.441094 6.20625 17.599219 C 5.357812 16.05375 4.521562 14.001094 4.488281 12.165938 C 4.455 10.330781 5.224687 8.712656 7.589062 8.037187 C 8.155781 7.875469 8.763281 7.815469 9.349219 7.875938 C 9.955312 7.938281 10.516406 8.225156 11.1 8.4 L 11.1 3.9 " transform="matrix(8.333333, 0, 0, 8.333333, 0, 0)"/>
<path fill="none" stroke-width="0.3" stroke-linecap="butt" stroke-linejoin="miter" stroke="rgb(0%, 0%, 0%)" stroke-opacity="1" stroke-miterlimit="4" d="M 4.898906 4.602187 C 7.158281 2.323594 9.035625 4.098281 11.1 5.7 C 8.609063 6.498281 6.240469 7.51875 4.898906 4.602187 " transform="matrix(8.333333, 0, 0, 8.333333, 0, 0)"/>
<path fill="none" stroke-width="0.3" stroke-linecap="butt" stroke-linejoin="miter" stroke="rgb(0%, 0%, 0%)" stroke-opacity="1" stroke-miterlimit="4" d="M 8.85 9.66 C 9.332812 9.777188 9.816094 9.893906 10.298906 10.011094 L 11.1 10.416094 L 12.9 10.416094 L 13.701094 10.011094 C 14.183906 9.893906 14.653125 9.645938 15.15 9.66 C 17.571094 9.727969 18.006094 11.289375 17.662031 13.079062 C 17.318437 14.86875 16.195312 16.886719 15.501562 17.867812 C 15.172031 18.332812 14.787187 18.756094 14.43 19.2 C 12.305625 18.314531 11.694375 18.314531 9.57 19.2 C 8.828906 18.281719 7.468125 16.496719 6.697969 14.695781 C 5.927344 12.895312 5.747344 11.078906 7.368281 10.097344 C 7.808438 9.830625 8.355937 9.805781 8.85 9.66 " transform="matrix(8.333333, 0, 0, 8.333333, 0, 0)"/>
</svg>
