<?xml version="1.0" encoding="UTF-8"?>
<svg xmlns="http://www.w3.org/2000/svg" xmlns:xlink="http://www.w3.org/1999/xlink" width="200" height="200" viewBox="0 0 200 200">
<rect x="-20" y="-20" width="240" height="240" fill="rgb(100%, 100%, 100%)" fill-opacity="1"/>
<path fill="none" stroke-width="0.3" stroke-linecap="butt" stroke-linejoin="miter" stroke="rgb(0%, 0%, 0%)" stroke-opacity="1" stroke-miterlimit="4" d="M 12.699844 5.1 C 15.399844 5.499844 17.000156 6.9 18.399844 9.200156 L 10.400156 9.200156 L 12.699844 5.1 " transform="matrix(8.333333, 0, 0, 8.333333, 0, 0)"/>
<path fill="none" stroke-width="0.3" stroke-linecap="butt" stroke-linejoin="miter" stroke="rgb(0%, 0%, 0%)" stroke-opacity="1" stroke-miterlimit="4" d="M 12.699844 5.1 L 10.700156 8.499844 L 8.7 12 L 6.399844 7.899844 C 8.1 5.799844 9.999844 5.1 12.699844 5.1 " transform="matrix(8.333333, 0, 0, 8.333333, 0, 0)"/>
<path fill="none" stroke-width="0.3" stroke-linecap="butt" stroke-linejoin="miter" stroke="rgb(0%, 0%, 0%)" stroke-opacity="1" stroke-miterlimit="4" d="M 6.399844 7.899844 L 8.4 11.4 L 10.400156 14.799844 L 5.600156 14.799844 C 4.700156 12.3 5.1 10.2 6.399844 7.899844 " transform="matrix(8.333333, 0, 0, 8.333333, 0, 0)"/>
<path fill="none" stroke-width="0.3" stroke-linecap="butt" stroke-linejoin="miter" stroke="rgb(0%, 0%, 0%)" stroke-opacity="1" stroke-miterlimit="4" d="M 13.599844 9.200156 L 18.399844 9.200156 C 19.299844 11.7 18.9 13.8 17.600156 16.100156 L 15.6 12.6 L 13.599844 9.200156 " transform="matrix(8.333333, 0, 0, 8.333333, 0, 0)"/>
<path fill="none" stroke-width="0.3" stroke-linecap="butt" stroke-linejoin="miter" stroke="rgb(0%, 0%, 0%)" stroke-opacity="1" stroke-miterlimit="4" d="M 15.3 12 L 17.600156 16.100156 C 15.9 18.200156 14.000156 18.9 11.300156 18.9 L 13.299844 15.500156 L 15.3 12 " transform="matrix(8.333333, 0, 0, 8.333333, 0, 0)"/>
<path fill="none" stroke-width="0.3" stroke-linecap="butt" stroke-linejoin="miter" stroke="rgb(0%, 0%, 0%)" stroke-opacity="1" stroke-miterlimit="4" d="M 5.600156 14.799844 L 13.599844 14.799844 L 11.300156 18.9 C 8.600156 18.500156 6.999844 17.1 5.600156 14.799844 " transform="matrix(8.333333, 0, 0, 8.333333, 0, 0)"/>
</svg>
