<?xml version="1.0" encoding="UTF-8"?>
<svg xmlns="http://www.w3.org/2000/svg" xmlns:xlink="http://www.w3.org/1999/xlink" width="200" height="200" viewBox="0 0 200 200">
<rect x="-20" y="-20" width="240" height="240" fill="rgb(100%, 100%, 100%)" fill-opacity="1"/>
<path fill="none" stroke-width="0.3" stroke-linecap="butt" stroke-linejoin="miter" stroke="rgb(0%, 0%, 0%)" stroke-opacity="1" stroke-miterlimit="4" d="M 16.299844 5.7 C 17.499844 6 18.099844 5.900156 18.800156 7.100156 C 19.899844 9.099844 18.500156 11.600156 16.299844 11.600156 C 14.000156 11.600156 12.6 9.099844 13.700156 7.100156 C 14.4 5.900156 15.099844 6 16.299844 5.7 " transform="matrix(8.333333, 0, 0, 8.333333, 0, 0)"/>
<path fill="none" stroke-width="0.3" stroke-linecap="butt" stroke-linejoin="miter" stroke="rgb(0%, 0%, 0%)" stroke-opacity="1" stroke-miterlimit="4" d="M 16.299844 5.7 C 17.499844 6 18.099844 5.900156 18.800156 7.100156 C 19.899844 9.099844 18.500156 11.600156 16.299844 11.600156 C 14.000156 11.600156 12.6 9.099844 13.700156 7.100156 C 14.4 5.900156 15.099844 6 16.299844 5.7 " transform="matrix(8.333333, 0, 0, 8.333333, 0, 0)"/>
<path fill="none" stroke-width="0.3" stroke-linecap="butt" stroke-linejoin="miter" stroke="rgb(0%, 0%, 0%)" stroke-opacity="1" stroke-miterlimit="4" d="M 16.299844 6.6 C 16.8 6.800156 17.300156 6.800156 17.7 7.2 C 18.999844 8.4 18 10.599844 16.299844 10.599844 C 14.499844 10.599844 13.599844 8.4 14.799844 7.2 C 15.200156 6.800156 15.800156 6.800156 16.299844 6.6 " transform="matrix(8.333333, 0, 0, 8.333333, 0, 0)"/>
<path fill="none" stroke-width="0.3" stroke-linecap="butt" stroke-linejoin="miter" stroke="rgb(0%, 0%, 0%)" stroke-opacity="1" stroke-miterlimit="4" d="M 10.899844 12 L 13.400156 12 C 15.3 12.500156 16.100156 13.700156 17.300156 15.200156 L 18.999844 15.3 C 20.4 15.999844 20.4 17.1 18.999844 17.900156 L 16.5 17.900156 C 16.100156 17.499844 15.800156 17.1 15.399844 16.700156 L 15.099844 17.000156 C 14.600156 17.4 13.899844 17.7 13.299844 17.900156 L 11.1 17.900156 L 10.899844 12 " transform="matrix(8.333333, 0, 0, 8.333333, 0, 0)"/>
<path fill="none" stroke-width="0.3" stroke-linecap="butt" stroke-linejoin="miter" stroke="rgb(0%, 0%, 0%)" stroke-opacity="1" stroke-miterlimit="4" d="M 9.200156 13.599844 C 9.500156 14.199844 9.6 14.900156 9.500156 15.500156 L 8.1 17.300156 C 7.8 17.499844 7.400156 17.7 7.100156 17.900156 L 5.199844 17.900156 C 3.500156 17.1 3.500156 15.9 5.199844 15.099844 L 6.399844 15.099844 L 7.299844 13.899844 C 7.899844 13.599844 8.600156 13.5 9.200156 13.599844 " transform="matrix(8.333333, 0, 0, 8.333333, 0, 0)"/>
</svg>
