<?xml version="1.0" encoding="UTF-8"?>
<svg xmlns="http://www.w3.org/2000/svg" xmlns:xlink="http://www.w3.org/1999/xlink" width="200" height="200" viewBox="0 0 200 200">
<rect x="-20" y="-20" width="240" height="240" fill="rgb(100%, 100%, 100%)" fill-opacity="1"/>
<path fill="none" stroke-width="0.3" stroke-linecap="butt" stroke-linejoin="miter" stroke="rgb(0%, 0%, 0%)" stroke-opacity="1" stroke-miterlimit="4" d="M 12 3.9 C 13.599844 4.100156 15.200156 4.5 16.5 5.300156 C 17.799844 6.099844 18.800156 7.299844 19.5 8.900156 C 19.899844 9.800156 20.4 11.499844 19.700156 12.399844 C 19.400156 12.699844 18.9 12.6 18.500156 12.500156 C 17.799844 10.2 16.599844 8.499844 14.900156 7.400156 C 13.299844 6.399844 11.300156 6 9 6.399844 C 9.800156 5.499844 10.899844 5.000156 12 4.599844 " transform="matrix(8.333333, 0, 0, 8.333333, 0, 0)"/>
<path fill="none" stroke-width="0.3" stroke-linecap="butt" stroke-linejoin="miter" stroke="rgb(0%, 0%, 0%)" stroke-opacity="1" stroke-miterlimit="4" d="M 12 6.9 C 14.000156 7.5 15.500156 8.499844 16.100156 9.9 C 16.700156 11.300156 16.400156 13.100156 15.3 15 L 14.900156 14.499844 C 15.399844 12.999844 15.6 11.499844 15.200156 10.299844 C 14.799844 9.099844 13.8 8.1 12 8.1 C 10.899844 8.1 10.599844 8.4 9.800156 9.099844 L 8.900156 8.300156 C 9.9 7.5 10.899844 6.9 12 6.9 " transform="matrix(8.333333, 0, 0, 8.333333, 0, 0)"/>
<path fill="none" stroke-width="0.3" stroke-linecap="butt" stroke-linejoin="miter" stroke="rgb(0%, 0%, 0%)" stroke-opacity="1" stroke-miterlimit="4" d="M 10.299844 9.999844 C 10.700156 9.999844 11.199844 9.999844 11.600156 9.999844 C 10.899844 11.300156 10.700156 12.399844 9.3 12.9 L 8.499844 12.9 L 9.3 10.299844 C 9.699844 10.2 10.100156 10.100156 10.299844 9.999844 " transform="matrix(8.333333, 0, 0, 8.333333, 0, 0)"/>
<path fill="none" stroke-width="0.3" stroke-linecap="butt" stroke-linejoin="miter" stroke="rgb(0%, 0%, 0%)" stroke-opacity="1" stroke-miterlimit="4" d="M 13.8 9.999844 C 13.400156 10.299844 13.100156 10.700156 12.699844 11.1 C 12.999844 10.700156 13.299844 10.299844 13.8 9.999844 " transform="matrix(8.333333, 0, 0, 8.333333, 0, 0)"/>
<path fill="none" stroke-width="0.3" stroke-linecap="butt" stroke-linejoin="miter" stroke="rgb(0%, 0%, 0%)" stroke-opacity="1" stroke-miterlimit="4" d="M 10.299844 11.600156 C 10.8 11.900156 11.199844 12.200156 11.7 12.500156 L 10.899844 12.500156 C 10.5 12.3 10.100156 12.099844 9.800156 11.799844 C 9.699844 11.7 9.500156 11.600156 9.500156 11.600156 C 9.800156 11.600156 10.100156 11.600156 10.299844 11.600156 " transform="matrix(8.333333, 0, 0, 8.333333, 0, 0)"/>
<path fill="none" stroke-width="0.3" stroke-linecap="butt" stroke-linejoin="miter" stroke="rgb(0%, 0%, 0%)" stroke-opacity="1" stroke-miterlimit="4" d="M 10.8 12.500156 L 12.099844 12.500156 C 12.699844 12.800156 13.2 13.100156 13.700156 13.299844 C 12.800156 13.299844 12 13.5 11.199844 13.599844 L 10.8 13.599844 L 10.8 12.500156 " transform="matrix(8.333333, 0, 0, 8.333333, 0, 0)"/>
</svg>
