<?xml version="1.0" encoding="UTF-8"?>
<svg xmlns="http://www.w3.org/2000/svg" xmlns:xlink="http://www.w3.org/1999/xlink" width="200" height="200" viewBox="0 0 200 200">
<rect x="-20" y="-20" width="240" height="240" fill="rgb(100%, 100%, 100%)" fill-opacity="1"/>
<path fill="none" stroke-width="0.3" stroke-linecap="butt" stroke-linejoin="miter" stroke="rgb(0%, 0%, 0%)" stroke-opacity="1" stroke-miterlimit="4" d="M 12 2.600156 C 13.599844 2.7 15.099844 3.099844 16.400156 3.699844 C 17.799844 4.400156 18.9 5.4 19.899844 6.800156 C 21.200156 8.799844 21.6 11.1 21.3 13.299844 C 21 15.500156 19.899844 17.499844 18.200156 18.999844 C 16.599844 20.499844 14.499844 21.500156 12 21.500156 C 9.500156 21.500156 7.400156 20.499844 5.7 18.999844 C 4.100156 17.499844 3 15.500156 2.7 13.299844 C 2.4 11.1 2.799844 8.799844 4.100156 6.800156 C 5.1 5.4 6.200156 4.400156 7.599844 3.699844 C 8.900156 3.099844 10.400156 2.7 12 2.600156 " transform="matrix(8.333333, 0, 0, 8.333333, 0, 0)"/>
<path fill="none" stroke-width="0.3" stroke-linecap="butt" stroke-linejoin="miter" stroke="rgb(0%, 0%, 0%)" stroke-opacity="1" stroke-miterlimit="4" d="M 12 5.199844 C 14.4 5.600156 16.5 6.3 17.799844 8.600156 C 19.100156 10.8 18.9 13.299844 17.799844 15.3 C 16.700156 17.300156 14.600156 18.800156 12 18.800156 C 9.399844 18.800156 7.299844 17.300156 6.200156 15.3 C 5.1 13.299844 4.899844 10.8 6.200156 8.600156 C 7.5 6.3 9.6 5.600156 12 5.199844 " transform="matrix(8.333333, 0, 0, 8.333333, 0, 0)"/>
<path fill="none" stroke-width="0.3" stroke-linecap="butt" stroke-linejoin="miter" stroke="rgb(0%, 0%, 0%)" stroke-opacity="1" stroke-miterlimit="4" d="M 12 7.5 C 13.8 8.000156 14.300156 8.4 14.7 10.2 C 14.300156 12 13.100156 12.9 12 12.9 C 10.899844 12.9 9.699844 12 9.3 10.2 C 9.699844 8.4 10.2 8.000156 12 7.5 " transform="matrix(8.333333, 0, 0, 8.333333, 0, 0)"/>
<path fill="none" stroke-width="0.3" stroke-linecap="butt" stroke-linejoin="miter" stroke="rgb(0%, 0%, 0%)" stroke-opacity="1" stroke-miterlimit="4" d="M 12 9.3 C 12.399844 9.399844 12.699844 9.800156 12.9 10.2 L 12.9 11.1 L 13.8 11.1 C 14.900156 11.4 14.900156 12.6 13.8 12.9 L 12.9 12.9 L 12.9 13.8 C 12.3 14.900156 11.7 14.900156 11.1 13.8 L 11.1 12.9 L 10.2 12.9 C 9.099844 12.6 9.099844 11.4 10.2 11.1 L 11.1 11.1 L 11.1 10.2 C 11.300156 9.800156 11.600156 9.399844 12 9.3 " transform="matrix(8.333333, 0, 0, 8.333333, 0, 0)"/>
</svg>
