<?xml version="1.0" encoding="UTF-8"?>
<svg xmlns="http://www.w3.org/2000/svg" xmlns:xlink="http://www.w3.org/1999/xlink" width="200" height="200" viewBox="0 0 200 200">
<rect x="-20" y="-20" width="240" height="240" fill="rgb(100%, 100%, 100%)" fill-opacity="1"/>
<path fill="none" stroke-width="0.3" stroke-linecap="butt" stroke-linejoin="miter" stroke="rgb(0%, 0%, 0%)" stroke-opacity="1" stroke-miterlimit="4" d="M 12 1.2 C 12.200156 1.400156 12.399844 1.599844 12.699844 1.8 L 12.699844 12.3 C 12.399844 12.6 12.3 13.100156 12 13.100156 C 11.7 13.100156 11.600156 12.6 11.300156 12.3 L 11.300156 1.8 C 11.499844 1.599844 11.799844 1.400156 12 1.2 " transform="matrix(8.333333, 0, 0, 8.333333, 0, 0)"/>
<path fill="none" stroke-width="0.3" stroke-linecap="butt" stroke-linejoin="miter" stroke="rgb(0%, 0%, 0%)" stroke-opacity="1" stroke-miterlimit="4" d="M 12.699844 1.2 C 12.9 1.400156 13.100156 1.599844 13.400156 1.8 L 13.400156 12.3 C 13.100156 12.6 12.9 13.100156 12.699844 13.100156 C 12.399844 13.100156 12.200156 12.6 12 12.3 L 12 1.8 C 12.200156 1.599844 12.500156 1.400156 12.699844 1.2 " transform="matrix(8.333333, 0, 0, 8.333333, 0, 0)"/>
<path fill="none" stroke-width="0.3" stroke-linecap="butt" stroke-linejoin="miter" stroke="rgb(0%, 0%, 0%)" stroke-opacity="1" stroke-miterlimit="4" d="M 9.3 3.9 L 9.3 8.600156 C 9.800156 10.2 10.899844 11.199844 12 11.199844 C 13.100156 11.199844 14.199844 10.2 14.7 8.600156 L 14.7 3.9 C 16.5 4.8 17.900156 5.799844 19.100156 7.400156 C 20.1 8.600156 20.7 9.9 21 11.300156 C 21.3 12.699844 21.399844 14.199844 21.099844 15.800156 C 20.7 18.200156 19.299844 20.1 17.4 21.200156 C 15.6 22.299844 13.299844 22.8 11.1 22.599844 C 8.900156 22.400156 6.800156 21.500156 5.300156 19.599844 C 3.9 18 3.500156 16.299844 3.200156 14.199844 L 7.299844 14.199844 C 8.000156 15.800156 9.500156 16.899844 11.1 17.199844 C 12.699844 17.600156 14.4 17.199844 15.800156 15.6 C 17.000156 14.300156 17.000156 13.700156 17.4 12 L 13.400156 12 L 13.400156 8.000156 L 17.4 8.000156 L 13.400156 3.500156 L 13.400156 8.600156 C 13.8 8.900156 14.199844 9.3 14.7 9.6 L 18.800156 9.999844 L 18.800156 13.400156 C 18.399844 15.3 18.3 15.9 17.000156 17.300156 C 15.399844 18.999844 13.400156 20.000156 11.4 20.1 C 9.3 20.1 7.2 19.2 5.799844 17.7 C 4.299844 16.2 3.399844 14.000156 3.399844 11.7 C 3.399844 9.800156 3.999844 8.199844 5.1 6.9 C 6.099844 5.600156 7.599844 4.599844 9.3 4.100156 " transform="matrix(8.333333, 0, 0, 8.333333, 0, 0)"/>
</svg>
