<?xml version="1.0" encoding="UTF-8"?>
<svg xmlns="http://www.w3.org/2000/svg" xmlns:xlink="http://www.w3.org/1999/xlink" width="200" height="200" viewBox="0 0 200 200">
<rect x="-20" y="-20" width="240" height="240" fill="rgb(100%, 100%, 100%)" fill-opacity="1"/>
<path fill="none" stroke-width="0.3" stroke-linecap="butt" stroke-linejoin="miter" stroke="rgb(0%, 0%, 0%)" stroke-opacity="1" stroke-miterlimit="4" d="M 12 1.899844 C 13.700156 2.000156 15.3 2.4 16.700156 3.099844 C 18.099844 3.800156 19.400156 4.8 20.4 6.3 C 21.9 8.499844 22.299844 11.000156 21.999844 13.400156 C 21.6 15.699844 20.4 17.900156 18.699844 19.5 C 16.899844 21.099844 14.600156 22.100156 12 22.100156 C 9.399844 22.100156 7.100156 21.099844 5.300156 19.5 C 3.6 17.900156 2.4 15.699844 2.000156 13.400156 C 1.700156 11.000156 2.1 8.499844 3.6 6.3 C 4.599844 4.8 5.900156 3.800156 7.299844 3.099844 C 8.7 2.4 10.299844 2.000156 12 1.899844 " transform="matrix(8.333333, 0, 0, 8.333333, 0, 0)"/>
<path fill="none" stroke-width="0.3" stroke-linecap="butt" stroke-linejoin="miter" stroke="rgb(0%, 0%, 0%)" stroke-opacity="1" stroke-miterlimit="4" d="M 11.7 7.299844 C 12 7.299844 12.200156 7.299844 12.500156 7.299844 L 16.299844 11.000156 C 16.299844 11.4 16.299844 11.7 16.299844 12 L 12.500156 15.9 C 11.199844 16.400156 10.899844 15.9 11.199844 14.7 L 13.899844 12 L 11.199844 9.3 C 10.899844 8.1 11.000156 7.599844 11.900156 7.299844 " transform="matrix(8.333333, 0, 0, 8.333333, 0, 0)"/>
<path fill="none" stroke-width="0.3" stroke-linecap="butt" stroke-linejoin="miter" stroke="rgb(0%, 0%, 0%)" stroke-opacity="1" stroke-miterlimit="4" d="M 1.899844 12 C 2.000156 10.299844 2.4 8.7 3.099844 7.299844 C 3.800156 5.799844 4.8 4.599844 6.3 3.6 C 8.499844 2.1 11.000156 1.700156 13.400156 2.000156 C 15.699844 2.4 17.900156 3.6 19.5 5.300156 C 21.099844 6.999844 22.100156 9.3 22.100156 12 C 22.100156 14.7 21.099844 17.000156 19.5 18.699844 C 17.900156 20.4 15.699844 21.6 13.400156 21.999844 C 11.000156 22.299844 8.499844 21.9 6.3 20.4 C 4.8 19.400156 3.800156 18.200156 3.099844 16.700156 C 2.4 15.3 2.000156 13.700156 1.899844 12 " transform="matrix(8.333333, 0, 0, 8.333333, 0, 0)"/>
</svg>
