<?xml version="1.0" encoding="UTF-8"?>
<svg xmlns="http://www.w3.org/2000/svg" xmlns:xlink="http://www.w3.org/1999/xlink" width="200" height="200" viewBox="0 0 200 200">
<rect x="-20" y="-20" width="240" height="240" fill="rgb(100%, 100%, 100%)" fill-opacity="1"/>
<path fill="none" stroke-width="0.3" stroke-linecap="butt" stroke-linejoin="miter" stroke="rgb(0%, 0%, 0%)" stroke-opacity="1" stroke-miterlimit="4" d="M 12 3.200156 C 14.000156 3.500156 15.6 3.9 17.000156 5.499844 C 18.399844 7.2 18.9 9.399844 18.699844 11.499844 C 18.399844 13.599844 17.300156 15.6 15.399844 16.899844 C 14.000156 17.900156 12.699844 18.200156 11.499844 18.099844 C 10.2 18 9 17.4 7.700156 16.700156 L 4.2 18.399844 L 5.600156 15.099844 C 4.5 12.9 4.299844 10.8 4.8 9 C 5.300156 7.2 6.6 5.600156 8.4 4.5 C 10.100156 3.500156 12.200156 3.200156 14.499844 3.500156 " transform="matrix(8.333333, 0, 0, 8.333333, 0, 0)"/>
<path fill="none" stroke-width="0.3" stroke-linecap="butt" stroke-linejoin="miter" stroke="rgb(0%, 0%, 0%)" stroke-opacity="1" stroke-miterlimit="4" d="M 12 8.000156 C 13.700156 8.300156 15 8.7 15.699844 10.400156 C 16.299844 11.7 16.100156 13.100156 15.3 14.199844 C 14.600156 15.3 13.400156 15.999844 12 15.999844 C 10.599844 15.999844 9.399844 15.3 8.7 14.199844 C 7.899844 13.100156 7.700156 11.7 8.300156 10.400156 C 9 8.7 10.299844 8.300156 12 8.000156 " transform="matrix(8.333333, 0, 0, 8.333333, 0, 0)"/>
<path fill="none" stroke-width="0.3" stroke-linecap="butt" stroke-linejoin="miter" stroke="rgb(0%, 0%, 0%)" stroke-opacity="1" stroke-miterlimit="4" d="M 12 9.399844 C 12.999844 9.6 13.400156 9.500156 13.899844 10.5 C 14.600156 11.7 13.8 13.599844 12 13.599844 C 10.100156 13.599844 9.200156 11.7 10.400156 10.5 C 10.700156 10.100156 11.499844 9.800156 12 9.399844 " transform="matrix(8.333333, 0, 0, 8.333333, 0, 0)"/>
</svg>
